<svg width="38" height="38" viewBox="0 0 38 38" fill="none" xmlns="http://www.w3.org/2000/svg">
<rect x="0.5" y="0.5" width="37" height="37" rx="18.5" stroke="#8A1E3E"/>
<rect x="4.5" y="4.5" width="29" height="29" rx="14.5" fill="#8A1E3E" fill-opacity="0.16"/>
<rect x="4.5" y="4.5" width="29" height="29" rx="14.5" stroke="#8A1E3E" stroke-dasharray="3 3"/>
<path fill-rule="evenodd" clip-rule="evenodd" d="M19 13C19.4142 13 19.75 13.3358 19.75 13.75V24.25C19.75 24.6642 19.4142 25 19 25C18.5858 25 18.25 24.6642 18.25 24.25V13.75C18.25 13.3358 18.5858 13 19 13Z" fill="#8A1E3E"/>
<path fill-rule="evenodd" clip-rule="evenodd" d="M13 19C13 18.5858 13.3358 18.25 13.75 18.25H24.25C24.6642 18.25 25 18.5858 25 19C25 19.4142 24.6642 19.75 24.25 19.75H13.75C13.3358 19.75 13 19.4142 13 19Z" fill="#8A1E3E"/>
</svg>
