<svg width="16" height="16" viewBox="0 0 16 16" fill="none" xmlns="http://www.w3.org/2000/svg">
<mask id="mask0_659_2477" style="mask-type:alpha" maskUnits="userSpaceOnUse" x="0" y="0" width="16" height="16">
<rect width="16" height="16" fill="#D9D9D9"/>
</mask>
<g mask="url(#mask0_659_2477)">
<path d="M7.99984 10.6665C8.83317 10.6665 9.5415 10.3748 10.1248 9.7915C10.7082 9.20817 10.9998 8.49984 10.9998 7.6665C10.9998 6.83317 10.7082 6.12484 10.1248 5.5415C9.5415 4.95817 8.83317 4.6665 7.99984 4.6665C7.1665 4.6665 6.45817 4.95817 5.87484 5.5415C5.2915 6.12484 4.99984 6.83317 4.99984 7.6665C4.99984 8.49984 5.2915 9.20817 5.87484 9.7915C6.45817 10.3748 7.1665 10.6665 7.99984 10.6665ZM7.99984 9.4665C7.49984 9.4665 7.07484 9.2915 6.72484 8.9415C6.37484 8.5915 6.19984 8.1665 6.19984 7.6665C6.19984 7.1665 6.37484 6.7415 6.72484 6.3915C7.07484 6.0415 7.49984 5.8665 7.99984 5.8665C8.49984 5.8665 8.92484 6.0415 9.27484 6.3915C9.62484 6.7415 9.79984 7.1665 9.79984 7.6665C9.79984 8.1665 9.62484 8.5915 9.27484 8.9415C8.92484 9.2915 8.49984 9.4665 7.99984 9.4665ZM7.99984 12.6665C6.37761 12.6665 4.89984 12.2137 3.5665 11.3082C2.23317 10.4026 1.2665 9.18873 0.666504 7.6665C1.2665 6.14428 2.23317 4.93039 3.5665 4.02484C4.89984 3.11928 6.37761 2.6665 7.99984 2.6665C9.62206 2.6665 11.0998 3.11928 12.4332 4.02484C13.7665 4.93039 14.7332 6.14428 15.3332 7.6665C14.7332 9.18873 13.7665 10.4026 12.4332 11.3082C11.0998 12.2137 9.62206 12.6665 7.99984 12.6665ZM7.99984 11.3332C9.25539 11.3332 10.4082 11.0026 11.4582 10.3415C12.5082 9.68039 13.3109 8.78873 13.8665 7.6665C13.3109 6.54428 12.5082 5.65262 11.4582 4.9915C10.4082 4.33039 9.25539 3.99984 7.99984 3.99984C6.74428 3.99984 5.5915 4.33039 4.5415 4.9915C3.4915 5.65262 2.68873 6.54428 2.13317 7.6665C2.68873 8.78873 3.4915 9.68039 4.5415 10.3415C5.5915 11.0026 6.74428 11.3332 7.99984 11.3332Z" fill="#62748E"/>
</g>
</svg>
