<svg width="14" height="14" viewBox="0 0 14 14" fill="none" xmlns="http://www.w3.org/2000/svg">
<path fill-rule="evenodd" clip-rule="evenodd" d="M2.33333 7.5835C2.6555 7.5835 2.91667 7.84466 2.91667 8.16683V12.2502C2.91667 12.5723 2.6555 12.8335 2.33333 12.8335C2.01117 12.8335 1.75 12.5723 1.75 12.2502V8.16683C1.75 7.84466 2.01117 7.5835 2.33333 7.5835Z" fill="#45556C"/>
<path fill-rule="evenodd" clip-rule="evenodd" d="M2.33333 1.16699C2.6555 1.16699 2.91667 1.42816 2.91667 1.75033V5.83366C2.91667 6.15582 2.6555 6.41699 2.33333 6.41699C2.01117 6.41699 1.75 6.15582 1.75 5.83366V1.75033C1.75 1.42816 2.01117 1.16699 2.33333 1.16699Z" fill="#45556C"/>
<path fill-rule="evenodd" clip-rule="evenodd" d="M7.00008 6.41699C7.32225 6.41699 7.58341 6.67816 7.58341 7.00033V12.2503C7.58341 12.5725 7.32225 12.8337 7.00008 12.8337C6.67792 12.8337 6.41675 12.5725 6.41675 12.2503V7.00033C6.41675 6.67816 6.67792 6.41699 7.00008 6.41699Z" fill="#45556C"/>
<path fill-rule="evenodd" clip-rule="evenodd" d="M7.00008 1.16699C7.32225 1.16699 7.58341 1.42816 7.58341 1.75033V4.66699C7.58341 4.98916 7.32225 5.25033 7.00008 5.25033C6.67792 5.25033 6.41675 4.98916 6.41675 4.66699V1.75033C6.41675 1.42816 6.67792 1.16699 7.00008 1.16699Z" fill="#45556C"/>
<path fill-rule="evenodd" clip-rule="evenodd" d="M11.6666 8.75C11.9888 8.75 12.2499 9.01117 12.2499 9.33333V12.25C12.2499 12.5722 11.9888 12.8333 11.6666 12.8333C11.3444 12.8333 11.0833 12.5722 11.0833 12.25V9.33333C11.0833 9.01117 11.3444 8.75 11.6666 8.75Z" fill="#45556C"/>
<path fill-rule="evenodd" clip-rule="evenodd" d="M11.6666 1.16699C11.9888 1.16699 12.2499 1.42816 12.2499 1.75033V7.00033C12.2499 7.32249 11.9888 7.58366 11.6666 7.58366C11.3444 7.58366 11.0833 7.32249 11.0833 7.00033V1.75033C11.0833 1.42816 11.3444 1.16699 11.6666 1.16699Z" fill="#45556C"/>
<path fill-rule="evenodd" clip-rule="evenodd" d="M0 8.16683C0 7.84466 0.261167 7.5835 0.583333 7.5835H4.08333C4.4055 7.5835 4.66667 7.84466 4.66667 8.16683C4.66667 8.489 4.4055 8.75016 4.08333 8.75016H0.583333C0.261167 8.75016 0 8.489 0 8.16683Z" fill="#45556C"/>
<path fill-rule="evenodd" clip-rule="evenodd" d="M4.66675 4.66683C4.66675 4.34466 4.92792 4.0835 5.25008 4.0835H8.75008C9.07225 4.0835 9.33341 4.34466 9.33341 4.66683C9.33341 4.989 9.07225 5.25016 8.75008 5.25016H5.25008C4.92792 5.25016 4.66675 4.989 4.66675 4.66683Z" fill="#45556C"/>
<path fill-rule="evenodd" clip-rule="evenodd" d="M9.33325 9.33333C9.33325 9.01117 9.59442 8.75 9.91659 8.75H13.4166C13.7388 8.75 13.9999 9.01117 13.9999 9.33333C13.9999 9.6555 13.7388 9.91667 13.4166 9.91667H9.91659C9.59442 9.91667 9.33325 9.6555 9.33325 9.33333Z" fill="#45556C"/>
</svg>
