<svg width="37" height="37" viewBox="0 0 37 37" fill="none" xmlns="http://www.w3.org/2000/svg">
<rect x="0.486842" y="0.486842" width="36.0263" height="36.0263" rx="18.0132" stroke="#0F172B" stroke-opacity="0.64" stroke-width="0.973684"/>
<rect x="3.89478" y="3.89453" width="29.2105" height="29.2105" rx="14.6053" fill="#0F172B" fill-opacity="0.2"/>
<rect x="4.38162" y="4.38137" width="28.2368" height="28.2368" rx="14.1184" stroke="#0F172B" stroke-opacity="0.64" stroke-width="0.973684" stroke-dasharray="2.92 2.92"/>
<path fill-rule="evenodd" clip-rule="evenodd" d="M18.5 12.6577C18.9034 12.6577 19.2303 12.9847 19.2303 13.388V23.6117C19.2303 24.015 18.9034 24.3419 18.5 24.3419C18.0967 24.3419 17.7698 24.015 17.7698 23.6117V13.388C17.7698 12.9847 18.0967 12.6577 18.5 12.6577Z" fill="#0F172B" fill-opacity="0.64"/>
<path fill-rule="evenodd" clip-rule="evenodd" d="M12.658 18.4998C12.658 18.0965 12.9849 17.7695 13.3882 17.7695H23.6119C24.0152 17.7695 24.3422 18.0965 24.3422 18.4998C24.3422 18.9031 24.0152 19.2301 23.6119 19.2301H13.3882C12.9849 19.2301 12.658 18.9031 12.658 18.4998Z" fill="#0F172B" fill-opacity="0.64"/>
</svg>
