<svg width="206" height="70" viewBox="0 0 206 70" fill="none" xmlns="http://www.w3.org/2000/svg">
<mask id="path-1-outside-1_709_1071" maskUnits="userSpaceOnUse" x="-0.491211" y="-0.330078" width="206" height="70" fill="black">
<rect fill="white" x="-0.491211" y="-0.330078" width="206" height="70"/>
<path d="M13.5088 32.158C15.1952 33.8436 16.91 35.5011 18.6593 37.1182C19.3454 37.7551 20.0396 38.3835 20.7393 39.0064C24.9075 42.9594 29.298 46.0455 34.3443 48.607C35.1702 49.0166 36.0017 49.4009 36.8468 49.7516C37.4094 49.9873 37.9774 50.2089 38.5509 50.4166C39.1244 50.6242 39.7034 50.8177 40.2851 50.9945C42.8041 51.6678 45.5015 52.1392 48.2483 52.3327C49.1648 52.3973 50.0841 52.4309 51.0061 52.4309C59.1449 52.2879 68.4746 50.0434 72.3163 42.1879C76.4323 33.2101 68.2002 25.074 60.7364 21.4885C59.9983 21.1322 59.2519 20.8067 58.4945 20.5149C56.2252 19.6396 53.8791 19.0532 51.5412 18.8092C50.6054 18.6969 49.667 18.6296 48.7258 18.6044C45.9049 18.5342 43.0758 18.8653 40.3482 19.6284C38.7594 20.0717 36.4956 20.3354 36.1114 18.5426C35.9111 17.614 36.3913 16.6601 37.22 16.2252C45.7348 11.7392 56.5161 12.2554 64.6247 17.4344C66.938 18.913 69.0152 20.7562 70.7961 22.866C71.3888 23.5702 71.9513 24.3024 72.4754 25.0599C74.7859 29.0074 76.7933 31.4417 77.2844 36.1046C78.0312 41.67 80.2775 34.2233 85.8032 32.2253C79.8843 25.1497 73.0023 18.6492 64.6522 14.9291C55.8301 10.9985 45.1421 10.53 36.9045 15.7707C36.0044 16.3431 35.3568 17.2886 35.2086 18.3631C35.0221 19.7378 35.7218 20.63 36.6877 21.0761L36.7041 21.0845C37.4944 21.4829 38.4054 21.5137 39.2287 21.1939C44.2969 19.2216 50.117 18.5791 55.1578 20.3298C55.9124 20.5935 56.6506 20.9077 57.364 21.2809C65.4562 25.6407 68.4746 36.3018 62.9865 44.4379C62.9618 44.4772 62.9371 44.5137 62.9124 44.5529C61.7874 46.2447 59.2739 45.9866 58.4699 44.1153C56.5518 39.646 56.7658 34.4333 58.7168 30.138L60.6286 25.934C60.6994 25.7782 60.5466 25.6144 60.3909 25.6792L56.1923 27.4278C55.4788 27.7252 54.7407 27.9721 53.9888 28.1685C53.237 28.3649 52.4686 28.508 51.6948 28.5977C50.8112 28.7156 49.9496 28.7436 49.1072 28.6903C48.2648 28.6398 47.4416 28.508 46.6376 28.3116C41.6434 26.9874 35.2141 22.2516 31.4548 19.216C29.6465 17.7543 27.0506 17.9254 25.4426 19.6144L13.5088 32.158ZM34.6517 45.7457C33.9136 45.0836 33.2166 44.3822 32.569 43.6416C31.9598 42.9177 31.3973 42.1574 30.8842 41.3691C30.7717 41.1951 30.6591 41.0212 30.5521 40.8444C30.2393 40.3394 29.9457 39.826 29.6658 39.3042C29.3804 38.7711 29.1115 38.2297 28.8563 37.6798C28.5984 37.1215 28.3596 36.5547 28.1346 35.9824C27.9096 35.4017 27.6983 34.8153 27.509 34.2233C27.3169 33.6257 27.1413 33.0225 26.9849 32.4137C26.8285 31.8021 26.6913 31.1849 26.5733 30.5649C26.4553 29.942 26.3565 29.3164 26.2797 28.6852C26.2028 28.0567 26.1452 27.4227 26.1123 26.7886C26.0794 26.1545 26.0656 25.5205 26.0766 24.8864C26.0876 24.2524 26.1233 23.6183 26.1836 22.9871C26.244 22.353 26.3345 21.7218 26.4416 21.0933C26.8449 19.4689 28.8646 18.9695 29.9457 20.2292C33.7517 24.6648 38.101 28.5813 39.9999 34.1279C40.2057 34.9331 40.3511 35.7552 40.417 36.5996C40.4828 37.4441 40.4718 38.311 40.3703 39.206C40.2605 39.9775 40.0959 40.7434 39.8791 41.4925C39.6623 42.2416 39.3907 42.9795 39.0641 43.6949L38.2272 45.5325C37.6729 46.7557 36.117 47.098 35.1319 46.2002C34.97 46.0515 34.8109 45.9028 34.6545 45.7485L34.6517 45.7457ZM50.7399 51.3143C49.8316 51.3396 48.9151 51.3003 47.9959 51.1937C46.0888 50.9777 44.1844 50.4867 42.3733 49.7544C40.7269 49.0895 40.7379 46.6964 42.3761 46.0146L42.4556 45.981C46.7446 44.1938 51.6509 44.4155 55.9234 46.5926C57.4518 47.3697 57.3695 49.6534 55.7752 50.2791C54.1809 50.9047 52.4659 51.2638 50.7372 51.3143H50.7399Z"/>
<path d="M94.7998 28.4073C92.4991 28.4073 90.0324 27.7194 89.5818 26.2726C89.4395 25.8457 89.3209 25.229 89.3209 24.3989C89.3209 23.2367 89.5818 22.4777 90.2459 22.4777C90.7677 22.4777 91.7402 23.7585 92.428 24.7547C93.4716 26.2726 94.3254 26.747 95.4402 26.747C96.9581 26.747 98.0729 25.8931 98.0729 24.4226C98.0729 23.0944 97.1716 22.0745 96.1043 21.1021L95.0133 20.1059C93.7325 18.9437 92.428 17.3783 92.428 15.2674C92.428 12.2315 95.5113 10.1443 98.8793 10.1443C102.556 10.1443 103.576 11.4488 103.576 13.9155C103.576 14.6745 103.338 15.2437 102.793 15.2437C102.129 15.2437 101.322 14.295 100.777 13.5834C100.231 12.8719 99.3062 11.8046 98.0255 11.8046C96.6972 11.8046 95.7485 12.6584 95.7485 13.7969C95.7485 14.9116 96.9107 16.2399 98.0255 17.2835L99.0453 18.2559C100.706 19.845 101.702 21.197 101.702 22.9284C101.702 25.7983 99.1877 28.4073 94.7998 28.4073Z"/>
<path d="M105.516 28.4073C103.903 28.4073 102.622 27.1976 102.622 24.8495C102.622 21.197 105.777 16.7854 110.093 16.7854C111.92 16.7854 113.319 17.5681 113.319 18.92C113.319 19.3944 113.153 19.9636 112.963 20.5328C112.536 21.9085 112.086 23.4027 112.608 24.2803C112.75 24.5175 112.987 24.7547 113.39 24.9444C113.746 25.1104 113.936 25.2765 113.936 25.5374C113.936 26.4149 112.275 28.4073 110.686 28.4073C109.05 28.4073 109.785 26.747 109.002 26.747C108.196 26.747 107.413 28.4073 105.516 28.4073ZM107.129 25.9643C108.979 25.9643 110.331 22.2643 110.331 19.9636C110.331 19.0149 110.046 18.3271 109.216 18.3271C107.39 18.3271 106.085 21.8136 106.085 24.2566C106.085 25.1816 106.275 25.9643 107.129 25.9643Z"/>
<path d="M115.624 28.4073C114.77 28.4073 114.272 27.7432 114.272 26.581C114.272 22.9047 117.189 19.1098 117.189 14.0815C117.189 12.018 116.335 11.4488 116.335 10.927C116.335 10.2392 117.829 9.66992 119.015 9.66992C120.344 9.66992 121.008 10.3815 121.008 11.3539C121.008 14.5084 117.924 18.3508 117.924 21.8848C117.924 24.138 119.324 24.8021 119.324 25.3713C119.324 26.5335 116.952 28.4073 115.624 28.4073Z"/>
<path d="M121.253 28.4073C120.375 28.4073 119.735 27.7906 119.735 26.913C119.735 24.9681 121.94 24.2566 121.94 21.7899C121.94 20.5566 121.347 19.3232 120.968 18.5405C120.921 18.4456 120.873 18.3508 120.873 18.2559C120.873 17.4732 122.557 16.7854 123.814 16.7854C125.38 16.7854 124.763 18.1136 125.996 18.1136C127.301 18.1136 127.633 16.7854 129.293 16.7854C130.764 16.7854 130.764 18.0899 131.736 18.0899C132.661 18.0899 133.207 16.7854 134.653 16.7854C135.839 16.7854 136.551 17.4732 136.551 18.4456C136.551 20.0585 135.46 20.8412 135.46 22.3591C135.46 24.4938 136.669 24.7072 136.669 25.2765C136.669 26.4387 134.155 28.4073 132.732 28.4073C131.855 28.4073 131.333 27.838 131.333 26.8893C131.333 25.229 133.278 23.8297 133.278 21.1258C133.278 20.1059 132.732 19.4418 131.783 19.4418C130.645 19.4418 129.791 20.7937 129.791 22.3591C129.791 24.4938 130.764 24.7072 130.764 25.2765C130.764 26.4387 128.392 28.4073 127.04 28.4073C126.02 28.4073 125.64 27.838 125.64 26.8893C125.64 25.229 127.585 23.8297 127.585 21.1258C127.585 20.1059 126.992 19.4655 126.162 19.4655C124.881 19.4655 124.099 20.8886 124.099 22.5963C124.099 24.4463 125 24.7072 125 25.2765C125 26.4387 122.676 28.4073 121.253 28.4073Z"/>
<path d="M140.352 28.4073C138.739 28.4073 137.458 27.1976 137.458 24.8495C137.458 21.197 140.613 16.7854 144.929 16.7854C146.756 16.7854 148.155 17.5681 148.155 18.92C148.155 19.3944 147.989 19.9636 147.799 20.5328C147.372 21.9085 146.922 23.4027 147.444 24.2803C147.586 24.5175 147.823 24.7547 148.226 24.9444C148.582 25.1104 148.772 25.2765 148.772 25.5374C148.772 26.4149 147.112 28.4073 145.522 28.4073C143.886 28.4073 144.621 26.747 143.838 26.747C143.032 26.747 142.249 28.4073 140.352 28.4073ZM141.965 25.9643C143.815 25.9643 145.167 22.2643 145.167 19.9636C145.167 19.0149 144.882 18.3271 144.052 18.3271C142.226 18.3271 140.921 21.8136 140.921 24.2566C140.921 25.1816 141.111 25.9643 141.965 25.9643Z"/>
<path d="M95.1319 54.4073C93.3767 54.4073 91.0286 54.2887 90.151 54.0278C89.5818 53.8618 89.226 53.5771 89.226 53.3162C89.226 52.9605 89.9376 52.154 90.3645 51.3951C91.6927 49.0707 93.0209 42.6668 93.0209 40.0103C93.0209 38.184 92.4754 37.6622 92.4754 37.2353C92.4754 36.168 95.796 36.1443 97.2902 36.1443C100.184 36.1443 101.702 36.1917 102.556 36.5475C103.647 37.0219 103.765 38.5161 103.765 39.5123C103.765 40.4136 103.433 41.22 102.959 41.22C102.532 41.22 102.2 40.7456 101.749 40.0815C100.563 38.3264 99.9941 37.6622 98.8082 37.6622C96.9107 37.6622 96.1517 39.4174 96.1517 41.1963C96.1517 42.8565 96.7921 44.2559 98.2389 44.2559C98.9505 44.2559 99.5909 43.8527 100.089 42.9277C100.468 42.2161 100.587 42.0264 100.967 42.0264C101.607 42.0264 101.892 43.2835 101.892 44.9674C101.892 46.8886 101.726 47.7425 101.085 47.7425C100.753 47.7425 100.54 47.4104 100.16 46.8175C99.7569 46.2008 99.1639 45.7739 98.0966 45.7739C95.8434 45.7739 94.7049 47.8373 94.7049 50.0906C94.7049 51.7271 95.4402 52.8182 96.9344 52.8182C97.7883 52.8182 98.7133 52.4624 100.208 50.2803C100.753 49.4739 101.251 48.9284 101.678 48.9284C102.129 48.9284 102.39 49.4976 102.39 50.3515C102.39 51.8457 101.915 53.3874 100.777 54.0041C100.089 54.3598 98.4998 54.4073 95.1319 54.4073Z"/>
<path d="M104.691 54.4073C103.837 54.4073 103.339 53.7432 103.339 52.581C103.339 48.9047 106.256 45.1098 106.256 40.0815C106.256 38.018 105.403 37.4488 105.403 36.927C105.403 36.2392 106.897 35.6699 108.083 35.6699C109.411 35.6699 110.075 36.3815 110.075 37.3539C110.075 40.5084 106.992 44.3508 106.992 47.8848C106.992 50.138 108.391 50.8021 108.391 51.3713C108.391 52.5335 106.019 54.4073 104.691 54.4073Z"/>
<path d="M128.781 57.1823C123.349 57.1823 114.574 53.7669 114.574 46.438C114.574 40.9116 118.961 36.1443 124.251 36.1443C129.018 36.1443 132.267 39.0616 132.267 43.1886C132.267 48.288 128.211 50.8021 127.381 52.6047C127.215 52.9367 127.144 53.2688 127.144 53.5534C127.144 54.3361 127.713 54.9054 128.615 55.1663C129.99 55.5695 130.607 55.7829 130.607 56.3284C130.607 57.04 130.014 57.1823 128.781 57.1823ZM122.495 52.8419C126.219 52.8419 128.117 48.0982 128.117 43.3309C128.117 40.2712 127.334 37.9469 124.369 37.9469C120.574 37.9469 118.606 42.6431 118.606 47.4816C118.606 50.8258 119.72 52.8419 122.495 52.8419Z"/>
<path d="M136.331 54.4073C134.481 54.4073 132.133 53.7432 132.133 50.4463C132.133 47.1495 134.718 42.7854 139.106 42.7854C140.838 42.7854 143.21 43.4258 143.21 46.6514C143.21 49.5213 141.241 54.4073 136.331 54.4073ZM136.877 52.747C138.608 52.747 139.581 48.7149 139.581 46.4854C139.581 45.2995 139.32 44.4456 138.49 44.4456C136.758 44.4456 135.786 48.2643 135.786 50.5886C135.786 51.6797 135.975 52.747 136.877 52.747Z"/>
<path d="M144.948 54.4073C144.071 54.4073 143.43 53.8143 143.43 52.9605C143.43 50.9444 145.683 50.304 145.683 47.7425C145.683 45.4892 144.758 44.9912 144.758 44.0662C144.758 43.4732 146.324 42.7854 147.225 42.7854C148.53 42.7854 148.15 44.5168 148.719 44.5168C149.265 44.5168 149.668 42.9514 151.257 42.9514C152.277 42.9514 153.06 43.6392 153.06 44.6354C153.06 45.6316 152.301 46.4854 151.305 46.4854C150.427 46.4854 150.285 45.8687 149.502 45.8687C148.316 45.8687 147.889 47.4104 147.889 48.7623C147.889 50.5175 149.004 50.7547 149.004 51.4188C149.004 52.6758 146.324 54.4073 144.948 54.4073Z"/>
<path d="M154.898 54.4073C153.285 54.4073 152.004 53.1976 152.004 50.8495C152.004 47.197 155.159 42.7854 159.475 42.7854C161.302 42.7854 162.701 43.5681 162.701 44.92C162.701 45.3944 162.535 45.9636 162.345 46.5328C161.918 47.9085 161.468 49.4027 161.989 50.2803C162.132 50.5175 162.369 50.7547 162.772 50.9444C163.128 51.1104 163.318 51.2765 163.318 51.5374C163.318 52.4149 161.657 54.4073 160.068 54.4073C158.432 54.4073 159.167 52.747 158.384 52.747C157.578 52.747 156.795 54.4073 154.898 54.4073ZM156.511 51.9643C158.361 51.9643 159.713 48.2643 159.713 45.9636C159.713 45.0149 159.428 44.3271 158.598 44.3271C156.771 44.3271 155.467 47.8136 155.467 50.2566C155.467 51.1816 155.657 51.9643 156.511 51.9643Z"/>
<path d="M167.369 54.4073C165.424 54.4073 163.645 53.5297 163.645 52.2252C163.645 51.4662 164.262 50.731 165.187 50.731C166.776 50.731 166.657 52.9842 168.175 52.9842C168.84 52.9842 169.243 52.5573 169.243 52.0117C169.243 50.2803 165.045 49.3553 165.045 46.3194C165.045 44.161 167.108 42.7854 169.693 42.7854C171.283 42.7854 173.038 43.2835 173.038 44.6117C173.038 45.3944 172.421 45.9636 171.591 45.9636C170.144 45.9636 170.358 44.2322 168.911 44.2322C168.175 44.2322 167.796 44.6354 167.796 45.1572C167.796 46.8412 172.208 47.5764 172.208 50.6361C172.208 52.7707 170.049 54.4073 167.369 54.4073Z"/>
<path d="M174.193 54.4073C173.339 54.4073 172.77 53.9803 172.77 52.6758C172.77 50.7547 174.549 48.5252 175.355 46.1059C176.114 43.8527 176.565 40.2238 175.853 38.4449C175.521 37.6148 175.213 37.259 175.213 36.927C175.213 36.2392 176.707 35.6699 177.964 35.6699C179.293 35.6699 179.886 36.3815 179.886 37.2828C179.886 39.0142 178.225 41.3386 178.225 43.2835C178.225 43.9001 178.439 44.161 179.008 44.161C180.312 44.161 180.953 42.7854 182.827 42.7854C183.965 42.7854 184.677 43.4732 184.677 44.4456C184.677 46.0585 183.586 46.8412 183.586 48.3591C183.586 50.4938 184.795 50.7072 184.795 51.2765C184.795 52.4387 182.186 54.4073 180.763 54.4073C179.743 54.4073 179.245 53.838 179.245 52.8893C179.245 51.229 181.309 49.8297 181.309 47.2444C181.309 46.1059 180.668 45.4655 179.625 45.4655C178.13 45.4655 176.921 46.8649 176.921 48.5252C176.921 50.3752 178.249 50.7072 178.249 51.2765C178.249 52.4387 175.616 54.4073 174.193 54.4073Z"/>
<path d="M183.826 59.6253C182.474 59.6253 181.217 58.9137 181.217 57.5381C181.217 56.6605 181.881 55.8304 182.996 55.8304C184.514 55.8304 184.633 57.206 185.629 57.206C187.099 57.206 187.597 55.0714 187.597 52.7944C187.597 50.0194 186.577 46.011 185.961 44.5405C185.818 44.1847 185.676 43.829 185.676 43.5918C185.676 43.1174 186.483 42.8328 187.787 42.8328C189.02 42.8328 190.064 43.3309 190.064 44.8726C190.064 46.2482 189.851 48.1931 189.851 49.6162C189.851 50.8495 190.088 51.6085 190.799 51.6085C192.104 51.6085 192.768 49.6162 192.768 47.8848C192.768 46.2245 191.914 45.513 191.914 44.4931C191.914 43.4969 192.792 42.7854 193.835 42.7854C194.855 42.7854 195.804 43.4495 195.804 44.8489C195.804 49.4502 190.965 55.7829 186.957 58.5105C185.913 59.1983 184.893 59.6253 183.826 59.6253Z"/>
</mask>
<path d="M13.5088 32.158C15.1952 33.8436 16.91 35.5011 18.6593 37.1182C19.3454 37.7551 20.0396 38.3835 20.7393 39.0064C24.9075 42.9594 29.298 46.0455 34.3443 48.607C35.1702 49.0166 36.0017 49.4009 36.8468 49.7516C37.4094 49.9873 37.9774 50.2089 38.5509 50.4166C39.1244 50.6242 39.7034 50.8177 40.2851 50.9945C42.8041 51.6678 45.5015 52.1392 48.2483 52.3327C49.1648 52.3973 50.0841 52.4309 51.0061 52.4309C59.1449 52.2879 68.4746 50.0434 72.3163 42.1879C76.4323 33.2101 68.2002 25.074 60.7364 21.4885C59.9983 21.1322 59.2519 20.8067 58.4945 20.5149C56.2252 19.6396 53.8791 19.0532 51.5412 18.8092C50.6054 18.6969 49.667 18.6296 48.7258 18.6044C45.9049 18.5342 43.0758 18.8653 40.3482 19.6284C38.7594 20.0717 36.4956 20.3354 36.1114 18.5426C35.9111 17.614 36.3913 16.6601 37.22 16.2252C45.7348 11.7392 56.5161 12.2554 64.6247 17.4344C66.938 18.913 69.0152 20.7562 70.7961 22.866C71.3888 23.5702 71.9513 24.3024 72.4754 25.0599C74.7859 29.0074 76.7933 31.4417 77.2844 36.1046C78.0312 41.67 80.2775 34.2233 85.8032 32.2253C79.8843 25.1497 73.0023 18.6492 64.6522 14.9291C55.8301 10.9985 45.1421 10.53 36.9045 15.7707C36.0044 16.3431 35.3568 17.2886 35.2086 18.3631C35.0221 19.7378 35.7218 20.63 36.6877 21.0761L36.7041 21.0845C37.4944 21.4829 38.4054 21.5137 39.2287 21.1939C44.2969 19.2216 50.117 18.5791 55.1578 20.3298C55.9124 20.5935 56.6506 20.9077 57.364 21.2809C65.4562 25.6407 68.4746 36.3018 62.9865 44.4379C62.9618 44.4772 62.9371 44.5137 62.9124 44.5529C61.7874 46.2447 59.2739 45.9866 58.4699 44.1153C56.5518 39.646 56.7658 34.4333 58.7168 30.138L60.6286 25.934C60.6994 25.7782 60.5466 25.6144 60.3909 25.6792L56.1923 27.4278C55.4788 27.7252 54.7407 27.9721 53.9888 28.1685C53.237 28.3649 52.4686 28.508 51.6948 28.5977C50.8112 28.7156 49.9496 28.7436 49.1072 28.6903C48.2648 28.6398 47.4416 28.508 46.6376 28.3116C41.6434 26.9874 35.2141 22.2516 31.4548 19.216C29.6465 17.7543 27.0506 17.9254 25.4426 19.6144L13.5088 32.158ZM34.6517 45.7457C33.9136 45.0836 33.2166 44.3822 32.569 43.6416C31.9598 42.9177 31.3973 42.1574 30.8842 41.3691C30.7717 41.1951 30.6591 41.0212 30.5521 40.8444C30.2393 40.3394 29.9457 39.826 29.6658 39.3042C29.3804 38.7711 29.1115 38.2297 28.8563 37.6798C28.5984 37.1215 28.3596 36.5547 28.1346 35.9824C27.9096 35.4017 27.6983 34.8153 27.509 34.2233C27.3169 33.6257 27.1413 33.0225 26.9849 32.4137C26.8285 31.8021 26.6913 31.1849 26.5733 30.5649C26.4553 29.942 26.3565 29.3164 26.2797 28.6852C26.2028 28.0567 26.1452 27.4227 26.1123 26.7886C26.0794 26.1545 26.0656 25.5205 26.0766 24.8864C26.0876 24.2524 26.1233 23.6183 26.1836 22.9871C26.244 22.353 26.3345 21.7218 26.4416 21.0933C26.8449 19.4689 28.8646 18.9695 29.9457 20.2292C33.7517 24.6648 38.101 28.5813 39.9999 34.1279C40.2057 34.9331 40.3511 35.7552 40.417 36.5996C40.4828 37.4441 40.4718 38.311 40.3703 39.206C40.2605 39.9775 40.0959 40.7434 39.8791 41.4925C39.6623 42.2416 39.3907 42.9795 39.0641 43.6949L38.2272 45.5325C37.6729 46.7557 36.117 47.098 35.1319 46.2002C34.97 46.0515 34.8109 45.9028 34.6545 45.7485L34.6517 45.7457ZM50.7399 51.3143C49.8316 51.3396 48.9151 51.3003 47.9959 51.1937C46.0888 50.9777 44.1844 50.4867 42.3733 49.7544C40.7269 49.0895 40.7379 46.6964 42.3761 46.0146L42.4556 45.981C46.7446 44.1938 51.6509 44.4155 55.9234 46.5926C57.4518 47.3697 57.3695 49.6534 55.7752 50.2791C54.1809 50.9047 52.4659 51.2638 50.7372 51.3143H50.7399Z" fill="#8A1E3E"/>
<path d="M94.7998 28.4073C92.4991 28.4073 90.0324 27.7194 89.5818 26.2726C89.4395 25.8457 89.3209 25.229 89.3209 24.3989C89.3209 23.2367 89.5818 22.4777 90.2459 22.4777C90.7677 22.4777 91.7402 23.7585 92.428 24.7547C93.4716 26.2726 94.3254 26.747 95.4402 26.747C96.9581 26.747 98.0729 25.8931 98.0729 24.4226C98.0729 23.0944 97.1716 22.0745 96.1043 21.1021L95.0133 20.1059C93.7325 18.9437 92.428 17.3783 92.428 15.2674C92.428 12.2315 95.5113 10.1443 98.8793 10.1443C102.556 10.1443 103.576 11.4488 103.576 13.9155C103.576 14.6745 103.338 15.2437 102.793 15.2437C102.129 15.2437 101.322 14.295 100.777 13.5834C100.231 12.8719 99.3062 11.8046 98.0255 11.8046C96.6972 11.8046 95.7485 12.6584 95.7485 13.7969C95.7485 14.9116 96.9107 16.2399 98.0255 17.2835L99.0453 18.2559C100.706 19.845 101.702 21.197 101.702 22.9284C101.702 25.7983 99.1877 28.4073 94.7998 28.4073Z" fill="#8A1E3E"/>
<path d="M105.516 28.4073C103.903 28.4073 102.622 27.1976 102.622 24.8495C102.622 21.197 105.777 16.7854 110.093 16.7854C111.92 16.7854 113.319 17.5681 113.319 18.92C113.319 19.3944 113.153 19.9636 112.963 20.5328C112.536 21.9085 112.086 23.4027 112.608 24.2803C112.75 24.5175 112.987 24.7547 113.39 24.9444C113.746 25.1104 113.936 25.2765 113.936 25.5374C113.936 26.4149 112.275 28.4073 110.686 28.4073C109.05 28.4073 109.785 26.747 109.002 26.747C108.196 26.747 107.413 28.4073 105.516 28.4073ZM107.129 25.9643C108.979 25.9643 110.331 22.2643 110.331 19.9636C110.331 19.0149 110.046 18.3271 109.216 18.3271C107.39 18.3271 106.085 21.8136 106.085 24.2566C106.085 25.1816 106.275 25.9643 107.129 25.9643Z" fill="#8A1E3E"/>
<path d="M115.624 28.4073C114.77 28.4073 114.272 27.7432 114.272 26.581C114.272 22.9047 117.189 19.1098 117.189 14.0815C117.189 12.018 116.335 11.4488 116.335 10.927C116.335 10.2392 117.829 9.66992 119.015 9.66992C120.344 9.66992 121.008 10.3815 121.008 11.3539C121.008 14.5084 117.924 18.3508 117.924 21.8848C117.924 24.138 119.324 24.8021 119.324 25.3713C119.324 26.5335 116.952 28.4073 115.624 28.4073Z" fill="#8A1E3E"/>
<path d="M121.253 28.4073C120.375 28.4073 119.735 27.7906 119.735 26.913C119.735 24.9681 121.94 24.2566 121.94 21.7899C121.94 20.5566 121.347 19.3232 120.968 18.5405C120.921 18.4456 120.873 18.3508 120.873 18.2559C120.873 17.4732 122.557 16.7854 123.814 16.7854C125.38 16.7854 124.763 18.1136 125.996 18.1136C127.301 18.1136 127.633 16.7854 129.293 16.7854C130.764 16.7854 130.764 18.0899 131.736 18.0899C132.661 18.0899 133.207 16.7854 134.653 16.7854C135.839 16.7854 136.551 17.4732 136.551 18.4456C136.551 20.0585 135.46 20.8412 135.46 22.3591C135.46 24.4938 136.669 24.7072 136.669 25.2765C136.669 26.4387 134.155 28.4073 132.732 28.4073C131.855 28.4073 131.333 27.838 131.333 26.8893C131.333 25.229 133.278 23.8297 133.278 21.1258C133.278 20.1059 132.732 19.4418 131.783 19.4418C130.645 19.4418 129.791 20.7937 129.791 22.3591C129.791 24.4938 130.764 24.7072 130.764 25.2765C130.764 26.4387 128.392 28.4073 127.04 28.4073C126.02 28.4073 125.64 27.838 125.64 26.8893C125.64 25.229 127.585 23.8297 127.585 21.1258C127.585 20.1059 126.992 19.4655 126.162 19.4655C124.881 19.4655 124.099 20.8886 124.099 22.5963C124.099 24.4463 125 24.7072 125 25.2765C125 26.4387 122.676 28.4073 121.253 28.4073Z" fill="#8A1E3E"/>
<path d="M140.352 28.4073C138.739 28.4073 137.458 27.1976 137.458 24.8495C137.458 21.197 140.613 16.7854 144.929 16.7854C146.756 16.7854 148.155 17.5681 148.155 18.92C148.155 19.3944 147.989 19.9636 147.799 20.5328C147.372 21.9085 146.922 23.4027 147.444 24.2803C147.586 24.5175 147.823 24.7547 148.226 24.9444C148.582 25.1104 148.772 25.2765 148.772 25.5374C148.772 26.4149 147.112 28.4073 145.522 28.4073C143.886 28.4073 144.621 26.747 143.838 26.747C143.032 26.747 142.249 28.4073 140.352 28.4073ZM141.965 25.9643C143.815 25.9643 145.167 22.2643 145.167 19.9636C145.167 19.0149 144.882 18.3271 144.052 18.3271C142.226 18.3271 140.921 21.8136 140.921 24.2566C140.921 25.1816 141.111 25.9643 141.965 25.9643Z" fill="#8A1E3E"/>
<path d="M95.1319 54.4073C93.3767 54.4073 91.0286 54.2887 90.151 54.0278C89.5818 53.8618 89.226 53.5771 89.226 53.3162C89.226 52.9605 89.9376 52.154 90.3645 51.3951C91.6927 49.0707 93.0209 42.6668 93.0209 40.0103C93.0209 38.184 92.4754 37.6622 92.4754 37.2353C92.4754 36.168 95.796 36.1443 97.2902 36.1443C100.184 36.1443 101.702 36.1917 102.556 36.5475C103.647 37.0219 103.765 38.5161 103.765 39.5123C103.765 40.4136 103.433 41.22 102.959 41.22C102.532 41.22 102.2 40.7456 101.749 40.0815C100.563 38.3264 99.9941 37.6622 98.8082 37.6622C96.9107 37.6622 96.1517 39.4174 96.1517 41.1963C96.1517 42.8565 96.7921 44.2559 98.2389 44.2559C98.9505 44.2559 99.5909 43.8527 100.089 42.9277C100.468 42.2161 100.587 42.0264 100.967 42.0264C101.607 42.0264 101.892 43.2835 101.892 44.9674C101.892 46.8886 101.726 47.7425 101.085 47.7425C100.753 47.7425 100.54 47.4104 100.16 46.8175C99.7569 46.2008 99.1639 45.7739 98.0966 45.7739C95.8434 45.7739 94.7049 47.8373 94.7049 50.0906C94.7049 51.7271 95.4402 52.8182 96.9344 52.8182C97.7883 52.8182 98.7133 52.4624 100.208 50.2803C100.753 49.4739 101.251 48.9284 101.678 48.9284C102.129 48.9284 102.39 49.4976 102.39 50.3515C102.39 51.8457 101.915 53.3874 100.777 54.0041C100.089 54.3598 98.4998 54.4073 95.1319 54.4073Z" fill="#8A1E3E"/>
<path d="M104.691 54.4073C103.837 54.4073 103.339 53.7432 103.339 52.581C103.339 48.9047 106.256 45.1098 106.256 40.0815C106.256 38.018 105.403 37.4488 105.403 36.927C105.403 36.2392 106.897 35.6699 108.083 35.6699C109.411 35.6699 110.075 36.3815 110.075 37.3539C110.075 40.5084 106.992 44.3508 106.992 47.8848C106.992 50.138 108.391 50.8021 108.391 51.3713C108.391 52.5335 106.019 54.4073 104.691 54.4073Z" fill="#8A1E3E"/>
<path d="M128.781 57.1823C123.349 57.1823 114.574 53.7669 114.574 46.438C114.574 40.9116 118.961 36.1443 124.251 36.1443C129.018 36.1443 132.267 39.0616 132.267 43.1886C132.267 48.288 128.211 50.8021 127.381 52.6047C127.215 52.9367 127.144 53.2688 127.144 53.5534C127.144 54.3361 127.713 54.9054 128.615 55.1663C129.99 55.5695 130.607 55.7829 130.607 56.3284C130.607 57.04 130.014 57.1823 128.781 57.1823ZM122.495 52.8419C126.219 52.8419 128.117 48.0982 128.117 43.3309C128.117 40.2712 127.334 37.9469 124.369 37.9469C120.574 37.9469 118.606 42.6431 118.606 47.4816C118.606 50.8258 119.72 52.8419 122.495 52.8419Z" fill="#8A1E3E"/>
<path d="M136.331 54.4073C134.481 54.4073 132.133 53.7432 132.133 50.4463C132.133 47.1495 134.718 42.7854 139.106 42.7854C140.838 42.7854 143.21 43.4258 143.21 46.6514C143.21 49.5213 141.241 54.4073 136.331 54.4073ZM136.877 52.747C138.608 52.747 139.581 48.7149 139.581 46.4854C139.581 45.2995 139.32 44.4456 138.49 44.4456C136.758 44.4456 135.786 48.2643 135.786 50.5886C135.786 51.6797 135.975 52.747 136.877 52.747Z" fill="#8A1E3E"/>
<path d="M144.948 54.4073C144.071 54.4073 143.43 53.8143 143.43 52.9605C143.43 50.9444 145.683 50.304 145.683 47.7425C145.683 45.4892 144.758 44.9912 144.758 44.0662C144.758 43.4732 146.324 42.7854 147.225 42.7854C148.53 42.7854 148.15 44.5168 148.719 44.5168C149.265 44.5168 149.668 42.9514 151.257 42.9514C152.277 42.9514 153.06 43.6392 153.06 44.6354C153.06 45.6316 152.301 46.4854 151.305 46.4854C150.427 46.4854 150.285 45.8687 149.502 45.8687C148.316 45.8687 147.889 47.4104 147.889 48.7623C147.889 50.5175 149.004 50.7547 149.004 51.4188C149.004 52.6758 146.324 54.4073 144.948 54.4073Z" fill="#8A1E3E"/>
<path d="M154.898 54.4073C153.285 54.4073 152.004 53.1976 152.004 50.8495C152.004 47.197 155.159 42.7854 159.475 42.7854C161.302 42.7854 162.701 43.5681 162.701 44.92C162.701 45.3944 162.535 45.9636 162.345 46.5328C161.918 47.9085 161.468 49.4027 161.989 50.2803C162.132 50.5175 162.369 50.7547 162.772 50.9444C163.128 51.1104 163.318 51.2765 163.318 51.5374C163.318 52.4149 161.657 54.4073 160.068 54.4073C158.432 54.4073 159.167 52.747 158.384 52.747C157.578 52.747 156.795 54.4073 154.898 54.4073ZM156.511 51.9643C158.361 51.9643 159.713 48.2643 159.713 45.9636C159.713 45.0149 159.428 44.3271 158.598 44.3271C156.771 44.3271 155.467 47.8136 155.467 50.2566C155.467 51.1816 155.657 51.9643 156.511 51.9643Z" fill="#8A1E3E"/>
<path d="M167.369 54.4073C165.424 54.4073 163.645 53.5297 163.645 52.2252C163.645 51.4662 164.262 50.731 165.187 50.731C166.776 50.731 166.657 52.9842 168.175 52.9842C168.84 52.9842 169.243 52.5573 169.243 52.0117C169.243 50.2803 165.045 49.3553 165.045 46.3194C165.045 44.161 167.108 42.7854 169.693 42.7854C171.283 42.7854 173.038 43.2835 173.038 44.6117C173.038 45.3944 172.421 45.9636 171.591 45.9636C170.144 45.9636 170.358 44.2322 168.911 44.2322C168.175 44.2322 167.796 44.6354 167.796 45.1572C167.796 46.8412 172.208 47.5764 172.208 50.6361C172.208 52.7707 170.049 54.4073 167.369 54.4073Z" fill="#8A1E3E"/>
<path d="M174.193 54.4073C173.339 54.4073 172.77 53.9803 172.77 52.6758C172.77 50.7547 174.549 48.5252 175.355 46.1059C176.114 43.8527 176.565 40.2238 175.853 38.4449C175.521 37.6148 175.213 37.259 175.213 36.927C175.213 36.2392 176.707 35.6699 177.964 35.6699C179.293 35.6699 179.886 36.3815 179.886 37.2828C179.886 39.0142 178.225 41.3386 178.225 43.2835C178.225 43.9001 178.439 44.161 179.008 44.161C180.312 44.161 180.953 42.7854 182.827 42.7854C183.965 42.7854 184.677 43.4732 184.677 44.4456C184.677 46.0585 183.586 46.8412 183.586 48.3591C183.586 50.4938 184.795 50.7072 184.795 51.2765C184.795 52.4387 182.186 54.4073 180.763 54.4073C179.743 54.4073 179.245 53.838 179.245 52.8893C179.245 51.229 181.309 49.8297 181.309 47.2444C181.309 46.1059 180.668 45.4655 179.625 45.4655C178.13 45.4655 176.921 46.8649 176.921 48.5252C176.921 50.3752 178.249 50.7072 178.249 51.2765C178.249 52.4387 175.616 54.4073 174.193 54.4073Z" fill="#8A1E3E"/>
<path d="M183.826 59.6253C182.474 59.6253 181.217 58.9137 181.217 57.5381C181.217 56.6605 181.881 55.8304 182.996 55.8304C184.514 55.8304 184.633 57.206 185.629 57.206C187.099 57.206 187.597 55.0714 187.597 52.7944C187.597 50.0194 186.577 46.011 185.961 44.5405C185.818 44.1847 185.676 43.829 185.676 43.5918C185.676 43.1174 186.483 42.8328 187.787 42.8328C189.02 42.8328 190.064 43.3309 190.064 44.8726C190.064 46.2482 189.851 48.1931 189.851 49.6162C189.851 50.8495 190.088 51.6085 190.799 51.6085C192.104 51.6085 192.768 49.6162 192.768 47.8848C192.768 46.2245 191.914 45.513 191.914 44.4931C191.914 43.4969 192.792 42.7854 193.835 42.7854C194.855 42.7854 195.804 43.4495 195.804 44.8489C195.804 49.4502 190.965 55.7829 186.957 58.5105C185.913 59.1983 184.893 59.6253 183.826 59.6253Z" fill="#8A1E3E"/>
<path d="M13.5088 32.158C15.1952 33.8436 16.91 35.5011 18.6593 37.1182C19.3454 37.7551 20.0396 38.3835 20.7393 39.0064C24.9075 42.9594 29.298 46.0455 34.3443 48.607C35.1702 49.0166 36.0017 49.4009 36.8468 49.7516C37.4094 49.9873 37.9774 50.2089 38.5509 50.4166C39.1244 50.6242 39.7034 50.8177 40.2851 50.9945C42.8041 51.6678 45.5015 52.1392 48.2483 52.3327C49.1648 52.3973 50.0841 52.4309 51.0061 52.4309C59.1449 52.2879 68.4746 50.0434 72.3163 42.1879C76.4323 33.2101 68.2002 25.074 60.7364 21.4885C59.9983 21.1322 59.2519 20.8067 58.4945 20.5149C56.2252 19.6396 53.8791 19.0532 51.5412 18.8092C50.6054 18.6969 49.667 18.6296 48.7258 18.6044C45.9049 18.5342 43.0758 18.8653 40.3482 19.6284C38.7594 20.0717 36.4956 20.3354 36.1114 18.5426C35.9111 17.614 36.3913 16.6601 37.22 16.2252C45.7348 11.7392 56.5161 12.2554 64.6247 17.4344C66.938 18.913 69.0152 20.7562 70.7961 22.866C71.3888 23.5702 71.9513 24.3024 72.4754 25.0599C74.7859 29.0074 76.7933 31.4417 77.2844 36.1046C78.0312 41.67 80.2775 34.2233 85.8032 32.2253C79.8843 25.1497 73.0023 18.6492 64.6522 14.9291C55.8301 10.9985 45.1421 10.53 36.9045 15.7707C36.0044 16.3431 35.3568 17.2886 35.2086 18.3631C35.0221 19.7378 35.7218 20.63 36.6877 21.0761L36.7041 21.0845C37.4944 21.4829 38.4054 21.5137 39.2287 21.1939C44.2969 19.2216 50.117 18.5791 55.1578 20.3298C55.9124 20.5935 56.6506 20.9077 57.364 21.2809C65.4562 25.6407 68.4746 36.3018 62.9865 44.4379C62.9618 44.4772 62.9371 44.5137 62.9124 44.5529C61.7874 46.2447 59.2739 45.9866 58.4699 44.1153C56.5518 39.646 56.7658 34.4333 58.7168 30.138L60.6286 25.934C60.6994 25.7782 60.5466 25.6144 60.3909 25.6792L56.1923 27.4278C55.4788 27.7252 54.7407 27.9721 53.9888 28.1685C53.237 28.3649 52.4686 28.508 51.6948 28.5977C50.8112 28.7156 49.9496 28.7436 49.1072 28.6903C48.2648 28.6398 47.4416 28.508 46.6376 28.3116C41.6434 26.9874 35.2141 22.2516 31.4548 19.216C29.6465 17.7543 27.0506 17.9254 25.4426 19.6144L13.5088 32.158ZM34.6517 45.7457C33.9136 45.0836 33.2166 44.3822 32.569 43.6416C31.9598 42.9177 31.3973 42.1574 30.8842 41.3691C30.7717 41.1951 30.6591 41.0212 30.5521 40.8444C30.2393 40.3394 29.9457 39.826 29.6658 39.3042C29.3804 38.7711 29.1115 38.2297 28.8563 37.6798C28.5984 37.1215 28.3596 36.5547 28.1346 35.9824C27.9096 35.4017 27.6983 34.8153 27.509 34.2233C27.3169 33.6257 27.1413 33.0225 26.9849 32.4137C26.8285 31.8021 26.6913 31.1849 26.5733 30.5649C26.4553 29.942 26.3565 29.3164 26.2797 28.6852C26.2028 28.0567 26.1452 27.4227 26.1123 26.7886C26.0794 26.1545 26.0656 25.5205 26.0766 24.8864C26.0876 24.2524 26.1233 23.6183 26.1836 22.9871C26.244 22.353 26.3345 21.7218 26.4416 21.0933C26.8449 19.4689 28.8646 18.9695 29.9457 20.2292C33.7517 24.6648 38.101 28.5813 39.9999 34.1279C40.2057 34.9331 40.3511 35.7552 40.417 36.5996C40.4828 37.4441 40.4718 38.311 40.3703 39.206C40.2605 39.9775 40.0959 40.7434 39.8791 41.4925C39.6623 42.2416 39.3907 42.9795 39.0641 43.6949L38.2272 45.5325C37.6729 46.7557 36.117 47.098 35.1319 46.2002C34.97 46.0515 34.8109 45.9028 34.6545 45.7485L34.6517 45.7457ZM50.7399 51.3143C49.8316 51.3396 48.9151 51.3003 47.9959 51.1937C46.0888 50.9777 44.1844 50.4867 42.3733 49.7544C40.7269 49.0895 40.7379 46.6964 42.3761 46.0146L42.4556 45.981C46.7446 44.1938 51.6509 44.4155 55.9234 46.5926C57.4518 47.3697 57.3695 49.6534 55.7752 50.2791C54.1809 50.9047 52.4659 51.2638 50.7372 51.3143H50.7399Z" stroke="#8A1E3E" stroke-width="19.3399" mask="url(#path-1-outside-1_709_1071)"/>
<path d="M94.7998 28.4073C92.4991 28.4073 90.0324 27.7194 89.5818 26.2726C89.4395 25.8457 89.3209 25.229 89.3209 24.3989C89.3209 23.2367 89.5818 22.4777 90.2459 22.4777C90.7677 22.4777 91.7402 23.7585 92.428 24.7547C93.4716 26.2726 94.3254 26.747 95.4402 26.747C96.9581 26.747 98.0729 25.8931 98.0729 24.4226C98.0729 23.0944 97.1716 22.0745 96.1043 21.1021L95.0133 20.1059C93.7325 18.9437 92.428 17.3783 92.428 15.2674C92.428 12.2315 95.5113 10.1443 98.8793 10.1443C102.556 10.1443 103.576 11.4488 103.576 13.9155C103.576 14.6745 103.338 15.2437 102.793 15.2437C102.129 15.2437 101.322 14.295 100.777 13.5834C100.231 12.8719 99.3062 11.8046 98.0255 11.8046C96.6972 11.8046 95.7485 12.6584 95.7485 13.7969C95.7485 14.9116 96.9107 16.2399 98.0255 17.2835L99.0453 18.2559C100.706 19.845 101.702 21.197 101.702 22.9284C101.702 25.7983 99.1877 28.4073 94.7998 28.4073Z" stroke="#8A1E3E" stroke-width="19.3399" mask="url(#path-1-outside-1_709_1071)"/>
<path d="M105.516 28.4073C103.903 28.4073 102.622 27.1976 102.622 24.8495C102.622 21.197 105.777 16.7854 110.093 16.7854C111.92 16.7854 113.319 17.5681 113.319 18.92C113.319 19.3944 113.153 19.9636 112.963 20.5328C112.536 21.9085 112.086 23.4027 112.608 24.2803C112.75 24.5175 112.987 24.7547 113.39 24.9444C113.746 25.1104 113.936 25.2765 113.936 25.5374C113.936 26.4149 112.275 28.4073 110.686 28.4073C109.05 28.4073 109.785 26.747 109.002 26.747C108.196 26.747 107.413 28.4073 105.516 28.4073ZM107.129 25.9643C108.979 25.9643 110.331 22.2643 110.331 19.9636C110.331 19.0149 110.046 18.3271 109.216 18.3271C107.39 18.3271 106.085 21.8136 106.085 24.2566C106.085 25.1816 106.275 25.9643 107.129 25.9643Z" stroke="#8A1E3E" stroke-width="19.3399" mask="url(#path-1-outside-1_709_1071)"/>
<path d="M115.624 28.4073C114.77 28.4073 114.272 27.7432 114.272 26.581C114.272 22.9047 117.189 19.1098 117.189 14.0815C117.189 12.018 116.335 11.4488 116.335 10.927C116.335 10.2392 117.829 9.66992 119.015 9.66992C120.344 9.66992 121.008 10.3815 121.008 11.3539C121.008 14.5084 117.924 18.3508 117.924 21.8848C117.924 24.138 119.324 24.8021 119.324 25.3713C119.324 26.5335 116.952 28.4073 115.624 28.4073Z" stroke="#8A1E3E" stroke-width="19.3399" mask="url(#path-1-outside-1_709_1071)"/>
<path d="M121.253 28.4073C120.375 28.4073 119.735 27.7906 119.735 26.913C119.735 24.9681 121.94 24.2566 121.94 21.7899C121.94 20.5566 121.347 19.3232 120.968 18.5405C120.921 18.4456 120.873 18.3508 120.873 18.2559C120.873 17.4732 122.557 16.7854 123.814 16.7854C125.38 16.7854 124.763 18.1136 125.996 18.1136C127.301 18.1136 127.633 16.7854 129.293 16.7854C130.764 16.7854 130.764 18.0899 131.736 18.0899C132.661 18.0899 133.207 16.7854 134.653 16.7854C135.839 16.7854 136.551 17.4732 136.551 18.4456C136.551 20.0585 135.46 20.8412 135.46 22.3591C135.46 24.4938 136.669 24.7072 136.669 25.2765C136.669 26.4387 134.155 28.4073 132.732 28.4073C131.855 28.4073 131.333 27.838 131.333 26.8893C131.333 25.229 133.278 23.8297 133.278 21.1258C133.278 20.1059 132.732 19.4418 131.783 19.4418C130.645 19.4418 129.791 20.7937 129.791 22.3591C129.791 24.4938 130.764 24.7072 130.764 25.2765C130.764 26.4387 128.392 28.4073 127.04 28.4073C126.02 28.4073 125.64 27.838 125.64 26.8893C125.64 25.229 127.585 23.8297 127.585 21.1258C127.585 20.1059 126.992 19.4655 126.162 19.4655C124.881 19.4655 124.099 20.8886 124.099 22.5963C124.099 24.4463 125 24.7072 125 25.2765C125 26.4387 122.676 28.4073 121.253 28.4073Z" stroke="#8A1E3E" stroke-width="19.3399" mask="url(#path-1-outside-1_709_1071)"/>
<path d="M140.352 28.4073C138.739 28.4073 137.458 27.1976 137.458 24.8495C137.458 21.197 140.613 16.7854 144.929 16.7854C146.756 16.7854 148.155 17.5681 148.155 18.92C148.155 19.3944 147.989 19.9636 147.799 20.5328C147.372 21.9085 146.922 23.4027 147.444 24.2803C147.586 24.5175 147.823 24.7547 148.226 24.9444C148.582 25.1104 148.772 25.2765 148.772 25.5374C148.772 26.4149 147.112 28.4073 145.522 28.4073C143.886 28.4073 144.621 26.747 143.838 26.747C143.032 26.747 142.249 28.4073 140.352 28.4073ZM141.965 25.9643C143.815 25.9643 145.167 22.2643 145.167 19.9636C145.167 19.0149 144.882 18.3271 144.052 18.3271C142.226 18.3271 140.921 21.8136 140.921 24.2566C140.921 25.1816 141.111 25.9643 141.965 25.9643Z" stroke="#8A1E3E" stroke-width="19.3399" mask="url(#path-1-outside-1_709_1071)"/>
<path d="M95.1319 54.4073C93.3767 54.4073 91.0286 54.2887 90.151 54.0278C89.5818 53.8618 89.226 53.5771 89.226 53.3162C89.226 52.9605 89.9376 52.154 90.3645 51.3951C91.6927 49.0707 93.0209 42.6668 93.0209 40.0103C93.0209 38.184 92.4754 37.6622 92.4754 37.2353C92.4754 36.168 95.796 36.1443 97.2902 36.1443C100.184 36.1443 101.702 36.1917 102.556 36.5475C103.647 37.0219 103.765 38.5161 103.765 39.5123C103.765 40.4136 103.433 41.22 102.959 41.22C102.532 41.22 102.2 40.7456 101.749 40.0815C100.563 38.3264 99.9941 37.6622 98.8082 37.6622C96.9107 37.6622 96.1517 39.4174 96.1517 41.1963C96.1517 42.8565 96.7921 44.2559 98.2389 44.2559C98.9505 44.2559 99.5909 43.8527 100.089 42.9277C100.468 42.2161 100.587 42.0264 100.967 42.0264C101.607 42.0264 101.892 43.2835 101.892 44.9674C101.892 46.8886 101.726 47.7425 101.085 47.7425C100.753 47.7425 100.54 47.4104 100.16 46.8175C99.7569 46.2008 99.1639 45.7739 98.0966 45.7739C95.8434 45.7739 94.7049 47.8373 94.7049 50.0906C94.7049 51.7271 95.4402 52.8182 96.9344 52.8182C97.7883 52.8182 98.7133 52.4624 100.208 50.2803C100.753 49.4739 101.251 48.9284 101.678 48.9284C102.129 48.9284 102.39 49.4976 102.39 50.3515C102.39 51.8457 101.915 53.3874 100.777 54.0041C100.089 54.3598 98.4998 54.4073 95.1319 54.4073Z" stroke="#8A1E3E" stroke-width="19.3399" mask="url(#path-1-outside-1_709_1071)"/>
<path d="M104.691 54.4073C103.837 54.4073 103.339 53.7432 103.339 52.581C103.339 48.9047 106.256 45.1098 106.256 40.0815C106.256 38.018 105.403 37.4488 105.403 36.927C105.403 36.2392 106.897 35.6699 108.083 35.6699C109.411 35.6699 110.075 36.3815 110.075 37.3539C110.075 40.5084 106.992 44.3508 106.992 47.8848C106.992 50.138 108.391 50.8021 108.391 51.3713C108.391 52.5335 106.019 54.4073 104.691 54.4073Z" stroke="#8A1E3E" stroke-width="19.3399" mask="url(#path-1-outside-1_709_1071)"/>
<path d="M128.781 57.1823C123.349 57.1823 114.574 53.7669 114.574 46.438C114.574 40.9116 118.961 36.1443 124.251 36.1443C129.018 36.1443 132.267 39.0616 132.267 43.1886C132.267 48.288 128.211 50.8021 127.381 52.6047C127.215 52.9367 127.144 53.2688 127.144 53.5534C127.144 54.3361 127.713 54.9054 128.615 55.1663C129.99 55.5695 130.607 55.7829 130.607 56.3284C130.607 57.04 130.014 57.1823 128.781 57.1823ZM122.495 52.8419C126.219 52.8419 128.117 48.0982 128.117 43.3309C128.117 40.2712 127.334 37.9469 124.369 37.9469C120.574 37.9469 118.606 42.6431 118.606 47.4816C118.606 50.8258 119.72 52.8419 122.495 52.8419Z" stroke="#8A1E3E" stroke-width="19.3399" mask="url(#path-1-outside-1_709_1071)"/>
<path d="M136.331 54.4073C134.481 54.4073 132.133 53.7432 132.133 50.4463C132.133 47.1495 134.718 42.7854 139.106 42.7854C140.838 42.7854 143.21 43.4258 143.21 46.6514C143.21 49.5213 141.241 54.4073 136.331 54.4073ZM136.877 52.747C138.608 52.747 139.581 48.7149 139.581 46.4854C139.581 45.2995 139.32 44.4456 138.49 44.4456C136.758 44.4456 135.786 48.2643 135.786 50.5886C135.786 51.6797 135.975 52.747 136.877 52.747Z" stroke="#8A1E3E" stroke-width="19.3399" mask="url(#path-1-outside-1_709_1071)"/>
<path d="M144.948 54.4073C144.071 54.4073 143.43 53.8143 143.43 52.9605C143.43 50.9444 145.683 50.304 145.683 47.7425C145.683 45.4892 144.758 44.9912 144.758 44.0662C144.758 43.4732 146.324 42.7854 147.225 42.7854C148.53 42.7854 148.15 44.5168 148.719 44.5168C149.265 44.5168 149.668 42.9514 151.257 42.9514C152.277 42.9514 153.06 43.6392 153.06 44.6354C153.06 45.6316 152.301 46.4854 151.305 46.4854C150.427 46.4854 150.285 45.8687 149.502 45.8687C148.316 45.8687 147.889 47.4104 147.889 48.7623C147.889 50.5175 149.004 50.7547 149.004 51.4188C149.004 52.6758 146.324 54.4073 144.948 54.4073Z" stroke="#8A1E3E" stroke-width="19.3399" mask="url(#path-1-outside-1_709_1071)"/>
<path d="M154.898 54.4073C153.285 54.4073 152.004 53.1976 152.004 50.8495C152.004 47.197 155.159 42.7854 159.475 42.7854C161.302 42.7854 162.701 43.5681 162.701 44.92C162.701 45.3944 162.535 45.9636 162.345 46.5328C161.918 47.9085 161.468 49.4027 161.989 50.2803C162.132 50.5175 162.369 50.7547 162.772 50.9444C163.128 51.1104 163.318 51.2765 163.318 51.5374C163.318 52.4149 161.657 54.4073 160.068 54.4073C158.432 54.4073 159.167 52.747 158.384 52.747C157.578 52.747 156.795 54.4073 154.898 54.4073ZM156.511 51.9643C158.361 51.9643 159.713 48.2643 159.713 45.9636C159.713 45.0149 159.428 44.3271 158.598 44.3271C156.771 44.3271 155.467 47.8136 155.467 50.2566C155.467 51.1816 155.657 51.9643 156.511 51.9643Z" stroke="#8A1E3E" stroke-width="19.3399" mask="url(#path-1-outside-1_709_1071)"/>
<path d="M167.369 54.4073C165.424 54.4073 163.645 53.5297 163.645 52.2252C163.645 51.4662 164.262 50.731 165.187 50.731C166.776 50.731 166.657 52.9842 168.175 52.9842C168.84 52.9842 169.243 52.5573 169.243 52.0117C169.243 50.2803 165.045 49.3553 165.045 46.3194C165.045 44.161 167.108 42.7854 169.693 42.7854C171.283 42.7854 173.038 43.2835 173.038 44.6117C173.038 45.3944 172.421 45.9636 171.591 45.9636C170.144 45.9636 170.358 44.2322 168.911 44.2322C168.175 44.2322 167.796 44.6354 167.796 45.1572C167.796 46.8412 172.208 47.5764 172.208 50.6361C172.208 52.7707 170.049 54.4073 167.369 54.4073Z" stroke="#8A1E3E" stroke-width="19.3399" mask="url(#path-1-outside-1_709_1071)"/>
<path d="M174.193 54.4073C173.339 54.4073 172.77 53.9803 172.77 52.6758C172.77 50.7547 174.549 48.5252 175.355 46.1059C176.114 43.8527 176.565 40.2238 175.853 38.4449C175.521 37.6148 175.213 37.259 175.213 36.927C175.213 36.2392 176.707 35.6699 177.964 35.6699C179.293 35.6699 179.886 36.3815 179.886 37.2828C179.886 39.0142 178.225 41.3386 178.225 43.2835C178.225 43.9001 178.439 44.161 179.008 44.161C180.312 44.161 180.953 42.7854 182.827 42.7854C183.965 42.7854 184.677 43.4732 184.677 44.4456C184.677 46.0585 183.586 46.8412 183.586 48.3591C183.586 50.4938 184.795 50.7072 184.795 51.2765C184.795 52.4387 182.186 54.4073 180.763 54.4073C179.743 54.4073 179.245 53.838 179.245 52.8893C179.245 51.229 181.309 49.8297 181.309 47.2444C181.309 46.1059 180.668 45.4655 179.625 45.4655C178.13 45.4655 176.921 46.8649 176.921 48.5252C176.921 50.3752 178.249 50.7072 178.249 51.2765C178.249 52.4387 175.616 54.4073 174.193 54.4073Z" stroke="#8A1E3E" stroke-width="19.3399" mask="url(#path-1-outside-1_709_1071)"/>
<path d="M183.826 59.6253C182.474 59.6253 181.217 58.9137 181.217 57.5381C181.217 56.6605 181.881 55.8304 182.996 55.8304C184.514 55.8304 184.633 57.206 185.629 57.206C187.099 57.206 187.597 55.0714 187.597 52.7944C187.597 50.0194 186.577 46.011 185.961 44.5405C185.818 44.1847 185.676 43.829 185.676 43.5918C185.676 43.1174 186.483 42.8328 187.787 42.8328C189.02 42.8328 190.064 43.3309 190.064 44.8726C190.064 46.2482 189.851 48.1931 189.851 49.6162C189.851 50.8495 190.088 51.6085 190.799 51.6085C192.104 51.6085 192.768 49.6162 192.768 47.8848C192.768 46.2245 191.914 45.513 191.914 44.4931C191.914 43.4969 192.792 42.7854 193.835 42.7854C194.855 42.7854 195.804 43.4495 195.804 44.8489C195.804 49.4502 190.965 55.7829 186.957 58.5105C185.913 59.1983 184.893 59.6253 183.826 59.6253Z" stroke="#8A1E3E" stroke-width="19.3399" mask="url(#path-1-outside-1_709_1071)"/>
<path d="M13.5088 31.6805C15.1952 33.366 16.91 35.0235 18.6593 36.6407C19.3454 37.2775 20.0396 37.906 20.7393 38.5288C24.9075 42.4818 29.298 45.568 34.3443 48.1294C35.1702 48.539 36.0017 48.9234 36.8468 49.2741C37.4094 49.5098 37.9774 49.7314 38.5509 49.939C39.1244 50.1466 39.7034 50.3402 40.2851 50.517C42.8041 51.1903 45.5015 51.6616 48.2483 51.8552C49.1648 51.9197 50.0841 51.9534 51.0061 51.9534C59.1449 51.8103 68.4746 49.5659 72.3163 41.7103C76.4323 32.7325 68.2002 24.5964 60.7364 21.0109C59.9983 20.6546 59.2519 20.3292 58.4945 20.0374C56.2252 19.1621 53.8791 18.5757 51.5412 18.3316C50.6054 18.2194 49.667 18.1521 48.7258 18.1268C45.9049 18.0567 43.0758 18.3877 40.3482 19.1508C38.7594 19.5941 36.4956 19.8578 36.1114 18.0651C35.9111 17.1365 36.3913 16.1826 37.22 15.7477C45.7348 11.2616 56.5161 11.7778 64.6247 16.9569C66.938 18.4354 69.0152 20.2787 70.7961 22.3885C71.3888 23.0927 71.9513 23.8249 72.4754 24.5824C74.7859 28.5298 76.9811 32.7382 77.4723 37.401C77.5958 38.3212 77.6726 39.247 77.7028 40.1757L85.8032 31.7478C79.8843 24.6722 73.0023 18.1717 64.6522 14.4515C55.8301 10.521 45.1421 10.0524 36.9045 15.2932C36.0044 15.8655 35.3568 16.811 35.2086 17.8855C35.0221 19.2603 35.7218 20.1524 36.6877 20.5985L36.7041 20.6069C37.4944 21.0053 38.4054 21.0362 39.2287 20.7163C44.2969 18.744 50.117 18.1016 55.1578 19.8522C55.9124 20.116 56.6506 20.4302 57.364 20.8033C65.4562 25.1632 68.4746 35.8243 62.9865 43.9604C62.9618 43.9997 62.9371 44.0361 62.9125 44.0754C61.7874 45.7672 59.2739 45.509 58.4699 43.6377C56.5518 39.1685 56.7658 33.9558 58.7168 29.6605L60.6286 25.4564C60.6994 25.3006 60.5466 25.1368 60.3909 25.2017L56.1923 26.9503C55.4789 27.2477 54.7407 27.4946 53.9888 27.691C53.237 27.8873 52.4686 28.0304 51.6948 28.1202C50.8112 28.238 49.9496 28.2661 49.1072 28.2128C48.2648 28.1623 47.4416 28.0304 46.6376 27.834C41.6434 26.5098 35.2141 21.774 31.4548 18.7384C29.6465 17.2767 27.0506 17.4479 25.4426 19.1368L13.5088 31.6805ZM34.6517 45.2682C33.9136 44.6061 33.2166 43.9047 32.569 43.164C31.9598 42.4402 31.3973 41.6799 30.8842 40.8915C30.7717 40.7176 30.6592 40.5436 30.5521 40.3669C30.2393 39.8619 29.9457 39.3485 29.6658 38.8266C29.3804 38.2936 29.1115 37.7521 28.8563 37.2022C28.5984 36.6439 28.3596 36.0772 28.1346 35.5049C27.9096 34.9241 27.6983 34.3378 27.509 33.7458C27.3169 33.1482 27.1413 32.545 26.9849 31.9362C26.8285 31.3246 26.6913 30.7074 26.5733 30.0873C26.4553 29.4645 26.3565 28.8389 26.2797 28.2076C26.2028 27.5792 26.1452 26.9451 26.1123 26.3111C26.0794 25.677 26.0656 25.0429 26.0766 24.4089C26.0876 23.7748 26.1233 23.1408 26.1836 22.5095C26.244 21.8755 26.3345 21.2442 26.4416 20.6158C26.8449 18.9914 28.8646 18.492 29.9457 19.7517C33.7517 24.1873 38.101 28.1038 39.9999 33.6504C40.2057 34.4556 40.3511 35.2776 40.417 36.1221C40.4828 36.9666 40.4718 37.8335 40.3703 38.7284C40.2605 39.5 40.0959 40.2659 39.8791 41.015C39.6623 41.7641 39.3907 42.5019 39.0641 43.2173L38.2272 45.055C37.6729 46.2782 36.117 46.6205 35.1319 45.7227C34.97 45.574 34.8109 45.4253 34.6545 45.271L34.6517 45.2682ZM50.7399 50.8368C49.8316 50.862 48.9151 50.8228 47.9959 50.7162C46.0888 50.5001 44.1844 50.0092 42.3733 49.2769C40.7269 48.612 40.7379 46.2188 42.3761 45.5371L42.4556 45.5034C46.7446 43.7163 51.6509 43.9379 55.9234 46.115C57.4518 46.8922 57.3695 49.1759 55.7752 49.8015C54.1809 50.4272 52.4659 50.7863 50.7372 50.8368H50.7399Z" fill="#E2E8F0"/>
<path d="M94.7998 27.9297C92.4991 27.9297 90.0324 27.2419 89.5818 25.7951C89.4395 25.3682 89.3209 24.7515 89.3209 23.9214C89.3209 22.7592 89.5818 22.0002 90.2459 22.0002C90.7677 22.0002 91.7402 23.281 92.428 24.2771C93.4716 25.7951 94.3254 26.2695 95.4402 26.2695C96.9581 26.2695 98.0729 25.4156 98.0729 23.9451C98.0729 22.6169 97.1716 21.597 96.1043 20.6245L95.0133 19.6284C93.7325 18.4662 92.428 16.9008 92.428 14.7899C92.428 11.7539 95.5113 9.66675 98.8793 9.66675C102.556 9.66675 103.576 10.9712 103.576 13.4379C103.576 14.1969 103.338 14.7662 102.793 14.7662C102.129 14.7662 101.322 13.8174 100.777 13.1059C100.231 12.3943 99.3062 11.327 98.0255 11.327C96.6972 11.327 95.7485 12.1809 95.7485 13.3193C95.7485 14.4341 96.9107 15.7623 98.0255 16.8059L99.0453 17.7784C100.706 19.3675 101.702 20.7194 101.702 22.4508C101.702 25.3207 99.1877 27.9297 94.7998 27.9297Z" fill="#E2E8F0"/>
<path d="M105.516 27.9297C103.903 27.9297 102.622 26.7201 102.622 24.372C102.622 20.7194 105.777 16.3078 110.093 16.3078C111.92 16.3078 113.319 17.0905 113.319 18.4425C113.319 18.9168 113.153 19.4861 112.963 20.0553C112.536 21.431 112.086 22.9252 112.608 23.8028C112.75 24.04 112.987 24.2771 113.39 24.4669C113.746 24.6329 113.936 24.7989 113.936 25.0598C113.936 25.9374 112.275 27.9297 110.686 27.9297C109.05 27.9297 109.785 26.2695 109.002 26.2695C108.196 26.2695 107.413 27.9297 105.516 27.9297ZM107.129 25.4868C108.979 25.4868 110.331 21.7867 110.331 19.4861C110.331 18.5373 110.046 17.8495 109.216 17.8495C107.39 17.8495 106.085 21.3361 106.085 23.7791C106.085 24.7041 106.275 25.4868 107.129 25.4868Z" fill="#E2E8F0"/>
<path d="M115.624 27.9297C114.77 27.9297 114.272 27.2656 114.272 26.1034C114.272 22.4271 117.189 18.6322 117.189 13.604C117.189 11.5405 116.335 10.9712 116.335 10.4494C116.335 9.76162 117.829 9.19238 119.015 9.19238C120.344 9.19238 121.008 9.90393 121.008 10.8764C121.008 14.0309 117.924 17.8732 117.924 21.4072C117.924 23.6605 119.324 24.3246 119.324 24.8938C119.324 26.056 116.952 27.9297 115.624 27.9297Z" fill="#E2E8F0"/>
<path d="M121.253 27.9297C120.375 27.9297 119.735 27.3131 119.735 26.4355C119.735 24.4906 121.94 23.7791 121.94 21.3124C121.94 20.079 121.347 18.8457 120.968 18.063C120.921 17.9681 120.873 17.8732 120.873 17.7784C120.873 16.9957 122.557 16.3078 123.814 16.3078C125.38 16.3078 124.763 17.6361 125.996 17.6361C127.301 17.6361 127.633 16.3078 129.293 16.3078C130.764 16.3078 130.764 17.6123 131.736 17.6123C132.661 17.6123 133.207 16.3078 134.653 16.3078C135.839 16.3078 136.551 16.9957 136.551 17.9681C136.551 19.5809 135.46 20.3636 135.46 21.8816C135.46 24.0162 136.669 24.2297 136.669 24.7989C136.669 25.9611 134.155 27.9297 132.732 27.9297C131.855 27.9297 131.333 27.3605 131.333 26.4118C131.333 24.7515 133.278 23.3521 133.278 20.6483C133.278 19.6284 132.732 18.9643 131.783 18.9643C130.645 18.9643 129.791 20.3162 129.791 21.8816C129.791 24.0162 130.764 24.2297 130.764 24.7989C130.764 25.9611 128.392 27.9297 127.04 27.9297C126.02 27.9297 125.64 27.3605 125.64 26.4118C125.64 24.7515 127.585 23.3521 127.585 20.6483C127.585 19.6284 126.992 18.988 126.162 18.988C124.881 18.988 124.099 20.4111 124.099 22.1188C124.099 23.9688 125 24.2297 125 24.7989C125 25.9611 122.676 27.9297 121.253 27.9297Z" fill="#E2E8F0"/>
<path d="M140.352 27.9297C138.739 27.9297 137.458 26.7201 137.458 24.372C137.458 20.7194 140.613 16.3078 144.929 16.3078C146.756 16.3078 148.155 17.0905 148.155 18.4425C148.155 18.9168 147.989 19.4861 147.799 20.0553C147.372 21.431 146.922 22.9252 147.444 23.8028C147.586 24.04 147.823 24.2771 148.226 24.4669C148.582 24.6329 148.772 24.7989 148.772 25.0598C148.772 25.9374 147.112 27.9297 145.522 27.9297C143.886 27.9297 144.621 26.2695 143.838 26.2695C143.032 26.2695 142.249 27.9297 140.352 27.9297ZM141.965 25.4868C143.815 25.4868 145.167 21.7867 145.167 19.4861C145.167 18.5373 144.882 17.8495 144.052 17.8495C142.226 17.8495 140.921 21.3361 140.921 23.7791C140.921 24.7041 141.111 25.4868 141.965 25.4868Z" fill="#E2E8F0"/>
<path d="M95.1319 53.9297C93.3767 53.9297 91.0286 53.8111 90.151 53.5502C89.5818 53.3842 89.226 53.0996 89.226 52.8387C89.226 52.4829 89.9376 51.6765 90.3645 50.9175C91.6927 48.5931 93.0209 42.1892 93.0209 39.5328C93.0209 37.7065 92.4754 37.1847 92.4754 36.7578C92.4754 35.6905 95.796 35.6667 97.2902 35.6667C100.184 35.6667 101.702 35.7142 102.556 36.07C103.647 36.5443 103.765 38.0386 103.765 39.0347C103.765 39.936 103.433 40.7424 102.959 40.7424C102.532 40.7424 102.2 40.2681 101.749 39.604C100.563 37.8488 99.9941 37.1847 98.8082 37.1847C96.9107 37.1847 96.1517 38.9399 96.1517 40.7187C96.1517 42.379 96.7921 43.7784 98.2389 43.7784C98.9505 43.7784 99.5909 43.3752 100.089 42.4501C100.468 41.7386 100.587 41.5489 100.967 41.5489C101.607 41.5489 101.892 42.8059 101.892 44.4899C101.892 46.4111 101.726 47.2649 101.085 47.2649C100.753 47.2649 100.54 46.9329 100.16 46.3399C99.7569 45.7232 99.1639 45.2963 98.0966 45.2963C95.8434 45.2963 94.7049 47.3598 94.7049 49.613C94.7049 51.2496 95.4402 52.3406 96.9344 52.3406C97.7883 52.3406 98.7133 51.9848 100.208 49.8028C100.753 48.9964 101.251 48.4508 101.678 48.4508C102.129 48.4508 102.39 49.0201 102.39 49.8739C102.39 51.3682 101.915 52.9099 100.777 53.5265C100.089 53.8823 98.4998 53.9297 95.1319 53.9297Z" fill="#E2E8F0"/>
<path d="M104.691 53.9297C103.837 53.9297 103.339 53.2656 103.339 52.1034C103.339 48.4271 106.256 44.6322 106.256 39.604C106.256 37.5405 105.403 36.9712 105.403 36.4494C105.403 35.7616 106.897 35.1924 108.083 35.1924C109.411 35.1924 110.075 35.9039 110.075 36.8764C110.075 40.0309 106.992 43.8732 106.992 47.4072C106.992 49.6605 108.391 50.3246 108.391 50.8938C108.391 52.056 106.019 53.9297 104.691 53.9297Z" fill="#E2E8F0"/>
<path d="M128.781 56.7048C123.349 56.7048 114.574 53.2893 114.574 45.9604C114.574 40.4341 118.961 35.6667 124.251 35.6667C129.018 35.6667 132.267 38.5841 132.267 42.711C132.267 47.8104 128.211 50.3246 127.381 52.1272C127.215 52.4592 127.144 52.7913 127.144 53.0759C127.144 53.8586 127.713 54.4278 128.615 54.6887C129.99 55.0919 130.607 55.3054 130.607 55.8509C130.607 56.5625 130.014 56.7048 128.781 56.7048ZM122.495 52.3643C126.219 52.3643 128.117 47.6207 128.117 42.8534C128.117 39.7937 127.334 37.4693 124.369 37.4693C120.574 37.4693 118.606 42.1655 118.606 47.004C118.606 50.3483 119.72 52.3643 122.495 52.3643Z" fill="#E2E8F0"/>
<path d="M136.331 53.9297C134.481 53.9297 132.133 53.2656 132.133 49.9688C132.133 46.672 134.718 42.3078 139.106 42.3078C140.838 42.3078 143.21 42.9482 143.21 46.1739C143.21 49.0438 141.241 53.9297 136.331 53.9297ZM136.877 52.2695C138.608 52.2695 139.581 48.2374 139.581 46.0079C139.581 44.822 139.32 43.9681 138.49 43.9681C136.758 43.9681 135.786 47.7867 135.786 50.1111C135.786 51.2021 135.975 52.2695 136.877 52.2695Z" fill="#E2E8F0"/>
<path d="M144.948 53.9297C144.071 53.9297 143.43 53.3368 143.43 52.4829C143.43 50.4669 145.683 49.8265 145.683 47.2649C145.683 45.0117 144.758 44.5136 144.758 43.5886C144.758 42.9957 146.324 42.3078 147.225 42.3078C148.53 42.3078 148.15 44.0393 148.719 44.0393C149.265 44.0393 149.668 42.4739 151.257 42.4739C152.277 42.4739 153.06 43.1617 153.06 44.1578C153.06 45.154 152.301 46.0079 151.305 46.0079C150.427 46.0079 150.285 45.3912 149.502 45.3912C148.316 45.3912 147.889 46.9329 147.889 48.2848C147.889 50.04 149.004 50.2771 149.004 50.9412C149.004 52.1983 146.324 53.9297 144.948 53.9297Z" fill="#E2E8F0"/>
<path d="M154.898 53.9297C153.285 53.9297 152.004 52.7201 152.004 50.372C152.004 46.7194 155.159 42.3078 159.475 42.3078C161.302 42.3078 162.701 43.0905 162.701 44.4425C162.701 44.9168 162.535 45.4861 162.345 46.0553C161.918 47.431 161.468 48.9252 161.989 49.8028C162.132 50.04 162.369 50.2771 162.772 50.4669C163.128 50.6329 163.318 50.7989 163.318 51.0598C163.318 51.9374 161.657 53.9297 160.068 53.9297C158.432 53.9297 159.167 52.2695 158.384 52.2695C157.578 52.2695 156.795 53.9297 154.898 53.9297ZM156.511 51.4868C158.361 51.4868 159.713 47.7867 159.713 45.4861C159.713 44.5373 159.428 43.8495 158.598 43.8495C156.771 43.8495 155.467 47.3361 155.467 49.7791C155.467 50.7041 155.657 51.4868 156.511 51.4868Z" fill="#E2E8F0"/>
<path d="M167.369 53.9297C165.424 53.9297 163.645 53.0522 163.645 51.7477C163.645 50.9887 164.262 50.2534 165.187 50.2534C166.776 50.2534 166.657 52.5066 168.175 52.5066C168.84 52.5066 169.243 52.0797 169.243 51.5342C169.243 49.8028 165.045 48.8778 165.045 45.8418C165.045 43.6835 167.108 42.3078 169.693 42.3078C171.283 42.3078 173.038 42.8059 173.038 44.1341C173.038 44.9168 172.421 45.4861 171.591 45.4861C170.144 45.4861 170.358 43.7546 168.911 43.7546C168.175 43.7546 167.796 44.1579 167.796 44.6796C167.796 46.3636 172.208 47.0989 172.208 50.1585C172.208 52.2932 170.049 53.9297 167.369 53.9297Z" fill="#E2E8F0"/>
<path d="M174.193 53.9297C173.339 53.9297 172.77 53.5028 172.77 52.1983C172.77 50.2771 174.549 48.0476 175.355 45.6284C176.114 43.3751 176.565 39.7463 175.853 37.9674C175.521 37.1373 175.213 36.7815 175.213 36.4494C175.213 35.7616 176.707 35.1924 177.964 35.1924C179.293 35.1924 179.886 35.9039 179.886 36.8052C179.886 38.5366 178.225 40.861 178.225 42.8059C178.225 43.4226 178.439 43.6835 179.008 43.6835C180.312 43.6835 180.953 42.3078 182.827 42.3078C183.965 42.3078 184.677 42.9957 184.677 43.9681C184.677 45.5809 183.586 46.3636 183.586 47.8816C183.586 50.0162 184.795 50.2297 184.795 50.7989C184.795 51.9611 182.186 53.9297 180.763 53.9297C179.743 53.9297 179.245 53.3605 179.245 52.4118C179.245 50.7515 181.309 49.3521 181.309 46.7668C181.309 45.6284 180.668 44.988 179.625 44.988C178.13 44.988 176.921 46.3874 176.921 48.0476C176.921 49.8976 178.249 50.2297 178.249 50.7989C178.249 51.9611 175.616 53.9297 174.193 53.9297Z" fill="#E2E8F0"/>
<path d="M183.826 59.1477C182.474 59.1477 181.217 58.4362 181.217 57.0605C181.217 56.183 181.881 55.3528 182.996 55.3528C184.514 55.3528 184.633 56.7285 185.629 56.7285C187.099 56.7285 187.597 54.5938 187.597 52.3169C187.597 49.5419 186.577 45.5335 185.961 44.063C185.818 43.7072 185.676 43.3514 185.676 43.1143C185.676 42.6399 186.483 42.3553 187.787 42.3553C189.02 42.3553 190.064 42.8534 190.064 44.395C190.064 45.7707 189.851 47.7156 189.851 49.1387C189.851 50.372 190.088 51.131 190.799 51.131C192.104 51.131 192.768 49.1387 192.768 47.4072C192.768 45.747 191.914 45.0354 191.914 44.0155C191.914 43.0194 192.792 42.3078 193.835 42.3078C194.855 42.3078 195.804 42.9719 195.804 44.3713C195.804 48.9726 190.965 55.3054 186.957 58.033C185.913 58.7208 184.893 59.1477 183.826 59.1477Z" fill="#E2E8F0"/>
</svg>
