<svg width="16" height="16" viewBox="0 0 16 16" fill="none" xmlns="http://www.w3.org/2000/svg">
<path d="M2.66667 12C2.47778 12 2.31956 11.936 2.192 11.808C2.06445 11.68 2.00045 11.5218 2 11.3333C1.99956 11.1449 2.06356 10.9867 2.192 10.8587C2.32045 10.7307 2.47867 10.6667 2.66667 10.6667H5.33334C5.52222 10.6667 5.68067 10.7307 5.80867 10.8587C5.93667 10.9867 6.00045 11.1449 6 11.3333C5.99956 11.5218 5.93556 11.6802 5.808 11.8087C5.68045 11.9371 5.52222 12.0009 5.33334 12H2.66667ZM2.66667 8.66667C2.47778 8.66667 2.31956 8.60267 2.192 8.47467C2.06445 8.34667 2.00045 8.18844 2 8C1.99956 7.81156 2.06356 7.65333 2.192 7.52533C2.32045 7.39733 2.47867 7.33333 2.66667 7.33333H9.33334C9.52222 7.33333 9.68067 7.39733 9.80867 7.52533C9.93667 7.65333 10.0004 7.81156 10 8C9.99956 8.18844 9.93556 8.34689 9.808 8.47533C9.68045 8.60378 9.52222 8.66756 9.33334 8.66667H2.66667ZM2.66667 5.33333C2.47778 5.33333 2.31956 5.26933 2.192 5.14133C2.06445 5.01333 2.00045 4.85511 2 4.66667C1.99956 4.47822 2.06356 4.32 2.192 4.192C2.32045 4.064 2.47867 4 2.66667 4H13.3333C13.5222 4 13.6807 4.064 13.8087 4.192C13.9367 4.32 14.0004 4.47822 14 4.66667C13.9996 4.85511 13.9356 5.01356 13.808 5.142C13.6804 5.27044 13.5222 5.33422 13.3333 5.33333H2.66667Z" fill="#0F172B"/>
</svg>
