<svg width="60" height="60" viewBox="0 0 60 60" fill="none" xmlns="http://www.w3.org/2000/svg">
<rect opacity="0.19" width="60" height="60" rx="8" fill="#00B69B"/>
<mask id="mask0_648_2302" style="mask-type:alpha" maskUnits="userSpaceOnUse" x="12" y="12" width="36" height="36">
<rect x="12.5" y="12.1924" width="35" height="35" fill="#D9D9D9"/>
</mask>
<g mask="url(#mask0_648_2302)">
<path d="M29.9999 35.5259C31.8228 35.5259 33.3723 34.8879 34.6484 33.6118C35.9244 32.3358 36.5624 30.7863 36.5624 28.9634C36.5624 27.1405 35.9244 25.591 34.6484 24.3149C33.3723 23.0389 31.8228 22.4009 29.9999 22.4009C28.177 22.4009 26.6275 23.0389 25.3515 24.3149C24.0754 25.591 23.4374 27.1405 23.4374 28.9634C23.4374 30.7863 24.0754 32.3358 25.3515 33.6118C26.6275 34.8879 28.177 35.5259 29.9999 35.5259ZM29.9999 32.9009C28.9062 32.9009 27.9765 32.5181 27.2109 31.7524C26.4452 30.9868 26.0624 30.0571 26.0624 28.9634C26.0624 27.8696 26.4452 26.9399 27.2109 26.1743C27.9765 25.4087 28.9062 25.0259 29.9999 25.0259C31.0937 25.0259 32.0234 25.4087 32.789 26.1743C33.5546 26.9399 33.9374 27.8696 33.9374 28.9634C33.9374 30.0571 33.5546 30.9868 32.789 31.7524C32.0234 32.5181 31.0937 32.9009 29.9999 32.9009ZM29.9999 39.9009C26.4513 39.9009 23.2187 38.9104 20.302 36.9295C17.3853 34.9486 15.2708 32.2932 13.9583 28.9634C15.2708 25.6335 17.3853 22.9781 20.302 20.9972C23.2187 19.0163 26.4513 18.0259 29.9999 18.0259C33.5485 18.0259 36.7812 19.0163 39.6978 20.9972C42.6145 22.9781 44.7291 25.6335 46.0416 28.9634C44.7291 32.2932 42.6145 34.9486 39.6978 36.9295C36.7812 38.9104 33.5485 39.9009 29.9999 39.9009Z" fill="#00B69B"/>
</g>
</svg>
