<svg width="14" height="14" viewBox="0 0 14 14" fill="none" xmlns="http://www.w3.org/2000/svg">
<path fill-rule="evenodd" clip-rule="evenodd" d="M1.1665 8.16683C1.1665 7.84466 1.42767 7.5835 1.74984 7.5835H5.83317C6.15534 7.5835 6.4165 7.84466 6.4165 8.16683V12.2502C6.4165 12.5723 6.15534 12.8335 5.83317 12.8335H1.74984C1.42767 12.8335 1.1665 12.5723 1.1665 12.2502V8.16683ZM2.33317 8.75016V11.6668H5.24984V8.75016H2.33317Z" fill="white"/>
<path fill-rule="evenodd" clip-rule="evenodd" d="M1.1665 1.74984C1.1665 1.42767 1.42767 1.1665 1.74984 1.1665H5.83317C6.15534 1.1665 6.4165 1.42767 6.4165 1.74984V5.83317C6.4165 6.15534 6.15534 6.4165 5.83317 6.4165H1.74984C1.42767 6.4165 1.1665 6.15534 1.1665 5.83317V1.74984ZM2.33317 2.33317V5.24984H5.24984V2.33317H2.33317Z" fill="white"/>
<path fill-rule="evenodd" clip-rule="evenodd" d="M7.5835 2.33333C7.5835 2.01117 7.84466 1.75 8.16683 1.75H12.2502C12.5723 1.75 12.8335 2.01117 12.8335 2.33333C12.8335 2.6555 12.5723 2.91667 12.2502 2.91667H8.16683C7.84466 2.91667 7.5835 2.6555 7.5835 2.33333Z" fill="white"/>
<path fill-rule="evenodd" clip-rule="evenodd" d="M7.5835 5.24984C7.5835 4.92767 7.84466 4.6665 8.16683 4.6665H12.2502C12.5723 4.6665 12.8335 4.92767 12.8335 5.24984C12.8335 5.572 12.5723 5.83317 12.2502 5.83317H8.16683C7.84466 5.83317 7.5835 5.572 7.5835 5.24984Z" fill="white"/>
<path fill-rule="evenodd" clip-rule="evenodd" d="M7.5835 8.74984C7.5835 8.42767 7.84466 8.1665 8.16683 8.1665H12.2502C12.5723 8.1665 12.8335 8.42767 12.8335 8.74984C12.8335 9.072 12.5723 9.33317 12.2502 9.33317H8.16683C7.84466 9.33317 7.5835 9.072 7.5835 8.74984Z" fill="white"/>
<path fill-rule="evenodd" clip-rule="evenodd" d="M7.5835 11.6668C7.5835 11.3447 7.84466 11.0835 8.16683 11.0835H12.2502C12.5723 11.0835 12.8335 11.3447 12.8335 11.6668C12.8335 11.989 12.5723 12.2502 12.2502 12.2502H8.16683C7.84466 12.2502 7.5835 11.989 7.5835 11.6668Z" fill="white"/>
</svg>
