<svg width="20" height="20" viewBox="0 0 20 20" fill="none" xmlns="http://www.w3.org/2000/svg">
<g clip-path="url(#clip0_659_2445)">
<path fill-rule="evenodd" clip-rule="evenodd" d="M16.6667 15.8332C16.6667 14.9127 17.4129 14.1665 18.3334 14.1665C19.2539 14.1665 20.0001 14.9127 20.0001 15.8332C20.0001 16.7536 19.2539 17.4998 18.3334 17.4998C17.4129 17.4998 16.6667 16.7536 16.6667 15.8332Z" fill="#9C9DA4"/>
<path fill-rule="evenodd" clip-rule="evenodd" d="M16.6667 10.0002C16.6667 9.07969 17.4129 8.3335 18.3334 8.3335C19.2539 8.3335 20.0001 9.07969 20.0001 10.0002C20.0001 10.9206 19.2539 11.6668 18.3334 11.6668C17.4129 11.6668 16.6667 10.9206 16.6667 10.0002Z" fill="#9C9DA4"/>
<path fill-rule="evenodd" clip-rule="evenodd" d="M16.6667 4.16667C16.6667 3.24619 17.4129 2.5 18.3334 2.5C19.2539 2.5 20.0001 3.24619 20.0001 4.16667C20.0001 5.08714 19.2539 5.83333 18.3334 5.83333C17.4129 5.83333 16.6667 5.08714 16.6667 4.16667Z" fill="#9C9DA4"/>
</g>
<defs>
<clipPath id="clip0_659_2445">
<rect width="20" height="20" fill="white"/>
</clipPath>
</defs>
</svg>
