<svg width="60" height="60" viewBox="0 0 60 60" fill="none" xmlns="http://www.w3.org/2000/svg">
<rect opacity="0.2" width="60" height="60" rx="8" fill="#16B1FF"/>
<mask id="mask0_648_2321" style="mask-type:alpha" maskUnits="userSpaceOnUse" x="14" y="16" width="34" height="35">
<rect x="14.5" y="16.75" width="33.5" height="33.5" fill="#D9D9D9"/>
</mask>
<g mask="url(#mask0_648_2321)">
<path d="M41.0207 25.125C39.8575 25.125 38.8688 24.7179 38.0545 23.9036C37.2403 23.0894 36.8332 22.1007 36.8332 20.9375C36.8332 19.7743 37.2403 18.7856 38.0545 17.9714C38.8688 17.1571 39.8575 16.75 41.0207 16.75C42.1839 16.75 43.1726 17.1571 43.9868 17.9714C44.8011 18.7856 45.2082 19.7743 45.2082 20.9375C45.2082 22.1007 44.8011 23.0894 43.9868 23.9036C43.1726 24.7179 42.1839 25.125 41.0207 25.125ZM17.2915 47.4583V22.3333C17.2915 21.5656 17.5649 20.9084 18.1116 20.3617C18.6583 19.815 19.3155 19.5417 20.0832 19.5417H34.1811C34.088 20.0069 34.0415 20.4722 34.0415 20.9375C34.0415 21.4028 34.088 21.8681 34.1811 22.3333C34.5068 23.9618 35.3094 25.2995 36.5889 26.3464C37.8684 27.3932 39.3457 27.9167 41.0207 27.9167C41.7651 27.9167 42.4979 27.8003 43.2191 27.5677C43.9403 27.3351 44.6033 26.9861 45.2082 26.5208V39.0833C45.2082 39.851 44.9348 40.5082 44.3881 41.0549C43.8414 41.6016 43.1842 41.875 42.4165 41.875H22.8748L17.2915 47.4583Z" fill="#16B1FF"/>
</g>
</svg>
