<svg width="14" height="14" viewBox="0 0 14 14" fill="none" xmlns="http://www.w3.org/2000/svg">
<path fill-rule="evenodd" clip-rule="evenodd" d="M2.9165 2.33317C2.59434 2.33317 2.33317 2.59434 2.33317 2.9165V11.0832C2.33317 11.4053 2.59434 11.6665 2.9165 11.6665H11.0832C11.4053 11.6665 11.6665 11.4053 11.6665 11.0832V2.9165C11.6665 2.59434 11.4053 2.33317 11.0832 2.33317H2.9165ZM1.1665 2.9165C1.1665 1.95001 1.95001 1.1665 2.9165 1.1665H11.0832C12.0497 1.1665 12.8332 1.95001 12.8332 2.9165V11.0832C12.8332 12.0497 12.0497 12.8332 11.0832 12.8332H2.9165C1.95001 12.8332 1.1665 12.0497 1.1665 11.0832V2.9165Z" fill="#45556C"/>
<path fill-rule="evenodd" clip-rule="evenodd" d="M1.1665 5.24984C1.1665 4.92767 1.42767 4.6665 1.74984 4.6665H12.2498C12.572 4.6665 12.8332 4.92767 12.8332 5.24984C12.8332 5.572 12.572 5.83317 12.2498 5.83317H1.74984C1.42767 5.83317 1.1665 5.572 1.1665 5.24984Z" fill="#45556C"/>
<path fill-rule="evenodd" clip-rule="evenodd" d="M1.1665 8.74984C1.1665 8.42767 1.42767 8.1665 1.74984 8.1665H12.2498C12.572 8.1665 12.8332 8.42767 12.8332 8.74984C12.8332 9.072 12.572 9.33317 12.2498 9.33317H1.74984C1.42767 9.33317 1.1665 9.072 1.1665 8.74984Z" fill="#45556C"/>
<path fill-rule="evenodd" clip-rule="evenodd" d="M6.99984 1.1665C7.322 1.1665 7.58317 1.42767 7.58317 1.74984V12.2498C7.58317 12.572 7.322 12.8332 6.99984 12.8332C6.67767 12.8332 6.4165 12.572 6.4165 12.2498V1.74984C6.4165 1.42767 6.67767 1.1665 6.99984 1.1665Z" fill="#45556C"/>
</svg>
