<svg width="60" height="60" viewBox="0 0 60 60" fill="none" xmlns="http://www.w3.org/2000/svg">
<rect opacity="0.19" width="60" height="60" rx="8" fill="#C82555"/>
<path opacity="0.587821" d="M37.9998 24.667C40.2089 24.667 41.9998 26.4579 41.9998 28.667C41.9996 30.876 40.2088 32.667 37.9998 32.667C35.7909 32.6668 33.9999 30.8759 33.9998 28.667C33.9998 26.458 35.7908 24.6672 37.9998 24.667ZM25.9998 18C28.9452 18 31.3336 20.3876 31.3337 23.333C31.3337 26.2785 28.9453 28.667 25.9998 28.667C23.0544 28.6668 20.6667 26.2784 20.6667 23.333C20.6669 20.3877 23.0545 18.0002 25.9998 18Z" fill="#C82555"/>
<path d="M25.9774 31.3335C32.3611 31.3335 37.6061 34.391 37.997 40.9331C38.0125 41.1937 37.9966 42.0005 36.995 42.0005H14.9696C14.6351 42.0001 13.9727 41.2787 14.0009 40.9321C14.5178 34.5688 19.6824 31.3336 25.9774 31.3335ZM37.4686 34.0024C42.0103 34.0523 45.7187 36.3471 45.9979 41.1997C46.0092 41.3952 45.9977 42.0005 45.2743 42.0005H40.1337C40.1337 38.9998 39.1416 36.2305 37.4686 34.0024Z" fill="#C82555"/>
</svg>
